<svg fill="none" height="50" viewBox="0 0 50 50" width="50" xmlns="http://www.w3.org/2000/svg"><rect fill="#fb8332" height="49.7778" rx="11" width="49.7778" x=".111115"/><path d="m14.1111 13.5927v20.2221h14.5185c.2868 0 .5185.2323.5185.5186v2.5925c0 1.1439.9303 2.0741 2.0741 2.0741 1.4296 0 2.5926-1.163 2.5926-2.5926v-23.2217c0-.8343.3163-1.6058.8317-2.1855h-17.9428c-1.4296 0-2.5926 1.163-2.5926 2.5925zm3.6296 4.6667h12.4445c.2867 0 .5185.2323.5185.5185s-.2318.5185-.5185.5185h-12.4445c-.2867 0-.5185-.2323-.5185-.5185s.2318-.5185.5185-.5185zm0 3.1111h12.4445c.2867 0 .5185.2323.5185.5185s-.2318.5185-.5185.5185h-12.4445c-.2867 0-.5185-.2323-.5185-.5185s.2318-.5185.5185-.5185zm0 3.1111h12.4445c.2867 0 .5185.2323.5185.5185s-.2318.5185-.5185.5185h-12.4445c-.2867 0-.5185-.2323-.5185-.5185s.2318-.5185.5185-.5185zm0 3.1111h12.4445c.2867 0 .5185.2323.5185.5185s-.2318.5185-.5185.5185h-12.4445c-.2867 0-.5185-.2323-.5185-.5185s.2318-.5185.5185-.5185zm10.3704 9.3332c0 .796.3008 1.5234.7939 2.0741h-15.8309c-1.1439 0-2.0741-.9302-2.0741-2.0741v-2.074h17.1111zm10.8889-23.8517v2.5926h-4.1481v-2.4811c0-1.12.8208-2.0756 1.8687-2.1757.5916-.057 1.1625.1307 1.6001.5294.4314.392.6793.9515.6793 1.5348z" fill="#fff"/></svg>