<svg fill="none" height="239" viewBox="0 0 504 239" width="504" xmlns="http://www.w3.org/2000/svg" xmlns:xlink="http://www.w3.org/1999/xlink"><filter id="a" color-interpolation-filters="sRGB" filterUnits="userSpaceOnUse" height="239" width="503" x=".5" y="0"><feFlood flood-opacity="0" result="BackgroundImageFix"/><feColorMatrix in="SourceAlpha" type="matrix" values="0 0 0 0 0 0 0 0 0 0 0 0 0 0 0 0 0 0 127 0"/><feOffset dy="4"/><feGaussianBlur stdDeviation="11"/><feColorMatrix type="matrix" values="0 0 0 0 0.00436681 0 0 0 0 0.00392822 0 0 0 0 0.00392822 0 0 0 0.32 0"/><feBlend in2="BackgroundImageFix" mode="normal" result="effect1_dropShadow"/><feBlend in="SourceGraphic" in2="effect1_dropShadow" mode="normal" result="shape"/></filter><g filter="url(#a)"><path d="m466.5 18h-429c-8.2843 0-15 6.7157-15 15v60c25.5-2 35 42.5 0 44.5v60.5c0 8.284 6.7157 15 15 15h429c8.284 0 15-6.716 15-15v-61c-28.5.5-27-44 0-44v-60c0-8.2843-6.716-15-15-15z" fill="#ef821e"/></g><path d="m22 184h460v13c0 8.837-7.163 16-16 16h-428c-8.8366 0-16-7.163-16-16z" fill="#000" fill-opacity=".27"/><path d="m172 105h233v46h-233z" fill="#000" fill-opacity=".1" stroke="#fff" stroke-dasharray="7 7" stroke-width="2"/><path d="m222.158 129.756h-8.531v8.244h-3.856v-19.906h13.454v3.131h-9.598v5.414h8.531zm12.299 5.14h9.324v3.104h-13.179v-19.906h3.855zm26.49-1.052h-5.974l-1.176 4.156h-4.047l6.521-19.906h3.487l6.398 19.906h-4.047zm-5.031-3.268h4.129l-2.037-7.328zm30.688-9.351h-6.139v16.775h-3.856v-16.775h-6.056v-3.131h16.051zm27.332 6.972 1.134-10.103h11.047v3.226h-7.916l-.478 4.375c.282-.164.683-.332 1.203-.506.519-.173 1.116-.259 1.791-.259.957 0 1.809.155 2.556.465.757.3 1.39.738 1.901 1.312.519.574.916 1.276 1.189 2.105.274.83.41 1.769.41 2.817 0 .893-.132 1.741-.396 2.543s-.67 1.508-1.217 2.119-1.235 1.094-2.064 1.449c-.83.356-1.81.533-2.94.533-.857 0-1.686-.127-2.488-.382-.793-.256-1.499-.629-2.119-1.121-.62-.493-1.126-1.094-1.518-1.805-.383-.72-.588-1.541-.615-2.461h3.746c.091.866.401 1.536.93 2.01.538.474 1.221.711 2.051.711.51 0 .943-.096 1.298-.287.365-.192.657-.456.875-.793.228-.338.392-.739.493-1.204.109-.464.164-.966.164-1.503 0-.529-.069-1.012-.205-1.45-.128-.446-.329-.829-.602-1.148s-.615-.565-1.025-.738c-.411-.174-.894-.26-1.45-.26-.373 0-.697.032-.97.096-.274.063-.515.145-.725.246-.21.1-.396.218-.56.355-.165.128-.319.264-.465.41zm33.585 2.229c0 1.285-.15 2.42-.451 3.404-.291.975-.715 1.796-1.271 2.461-.556.656-1.235 1.153-2.037 1.49s-1.705.506-2.707.506c-.994 0-1.892-.169-2.694-.506s-1.485-.834-2.05-1.49c-.556-.665-.989-1.486-1.299-2.461-.301-.984-.451-2.119-.451-3.404v-4.758c0-1.285.15-2.415.451-3.391.3-.984.729-1.804 1.285-2.461.565-.665 1.244-1.166 2.037-1.504.802-.337 1.7-.505 2.693-.505 1.003 0 1.905.168 2.707.505.802.338 1.481.839 2.037 1.504.566.657.999 1.477 1.299 2.461.301.976.451 2.106.451 3.391zm-9.132-1.641 5.304-3.951c-.027-1.34-.259-2.333-.697-2.98-.437-.648-1.094-.971-1.969-.971-.884 0-1.545.342-1.982 1.025-.438.684-.656 1.737-.656 3.158zm5.304-1.367-5.304 3.937c.045 1.313.287 2.288.724 2.926.438.629 1.085.944 1.942.944.893 0 1.554-.347 1.982-1.039.438-.693.656-1.755.656-3.186zm10.235-5.77c0-.528.077-1.025.232-1.49.164-.465.406-.87.725-1.217.328-.346.733-.619 1.217-.82.492-.21 1.061-.314 1.709-.314.665 0 1.239.104 1.722.314.492.201.898.474 1.217.82.319.347.556.752.711 1.217.164.465.246.962.246 1.49v1.053c0 .52-.082 1.012-.246 1.477-.155.455-.392.861-.711 1.217-.319.346-.72.619-1.203.82-.483.2-1.053.301-1.709.301s-1.231-.101-1.723-.301c-.483-.201-.888-.474-1.217-.82-.319-.356-.56-.762-.724-1.217-.164-.465-.246-.957-.246-1.477zm2.57 1.053c0 .21.023.415.068.615.046.192.119.365.219.52.11.146.251.264.424.355.173.082.383.123.629.123s.451-.041.615-.123c.173-.091.31-.209.41-.355.101-.155.173-.328.219-.52.046-.2.068-.405.068-.615v-1.053c0-.209-.022-.41-.068-.601-.046-.201-.123-.374-.232-.52-.101-.155-.237-.273-.411-.355-.164-.091-.373-.137-.628-.137-.247 0-.452.046-.616.137-.164.082-.3.2-.41.355-.1.146-.173.319-.219.52-.045.191-.068.392-.068.601zm5.469 10.692c0-.52.082-1.012.246-1.477s.405-.87.725-1.217c.328-.355.733-.633 1.216-.834.492-.2 1.062-.301 1.709-.301.666 0 1.24.101 1.723.301.492.201.898.479 1.217.834.319.347.556.752.711 1.217.164.465.246.957.246 1.477v1.066c0 .52-.078 1.012-.233 1.477-.155.464-.396.87-.724 1.216-.319.347-.72.62-1.203.821-.483.2-1.053.3-1.709.3-.657 0-1.231-.1-1.723-.3-.492-.201-.902-.474-1.23-.821-.32-.346-.561-.752-.725-1.216-.164-.465-.246-.957-.246-1.477zm2.57 1.066c0 .21.027.415.082.615.055.192.137.365.246.52.119.146.26.264.424.355.173.082.374.123.602.123.282 0 .51-.041.683-.123.173-.091.306-.209.397-.355.091-.155.15-.328.177-.52.028-.191.041-.396.041-.615v-1.066c0-.21-.022-.411-.068-.602-.045-.191-.123-.36-.232-.506-.101-.155-.237-.273-.41-.355-.165-.091-.37-.137-.616-.137s-.455.046-.629.137c-.173.082-.31.2-.41.355-.1.146-.173.315-.219.506-.045.191-.068.392-.068.602zm-5.414.834-1.859-.889 7.67-14.054 1.859.888z" fill="#fff9f9"/><circle cx="105" cy="112" fill="#000" fill-opacity=".16" r="40"/><g fill="#fff"><path d="m115.062 99.1526.877 5.6334 5.047 2.613-2.545 5.108 2.559 5.109-5.09 2.612-.877 5.634-5.593-.89-3.983 4.028-3.997-4.087-5.5504.934-.8915-5.677-5.0181-2.598 2.5594-5.108-2.545-5.065 5.0468-2.642.8771-5.5898 5.5647.9338 3.997-4.101 3.983 4.043zm-13.157 6.0574c-.572 0-1.12.23-1.525.641-.4042.41-.6314.967-.6314 1.548s.2272 1.137.6314 1.548c.405.411.953.641 1.525.641s1.121-.23 1.525-.641c.405-.411.632-.967.632-1.548s-.227-1.138-.632-1.548c-.404-.411-.953-.641-1.525-.641zm7.19 10.216c-.572 0-1.121.231-1.525.642-.405.41-.632.967-.632 1.548 0 .58.227 1.137.632 1.548.404.41.953.641 1.525.641s1.12-.231 1.525-.641c.404-.411.631-.968.631-1.548 0-.581-.227-1.138-.631-1.548-.405-.411-.953-.642-1.525-.642zm-8.757 4.379 12.351-12.537-2.027-2.058-12.3512 12.537z"/><path d="m118.681 201.019 2.014-7.683h2.271l-3.23 10.664h-2.095l-3.222-10.664h2.27zm16.273.754h-3.201l-.63 2.227h-2.168l3.494-10.664h1.868l3.427 10.664h-2.168zm-2.695-1.75h2.212l-1.092-3.926zm14.214 2.314h4.995v1.663h-7.06v-10.664h2.065zm12.808-9.001h6.167v1.663h-2.08v7.346h2.08v1.655h-6.167v-1.655h2.029v-7.346h-2.029zm14.061 10.664v-10.664h2.761c.708 0 1.348.122 1.919.366.577.239 1.067.576 1.473 1.011.41.43.725.945.944 1.545.225.601.337 1.26.337 1.978v.879c0 .718-.112 1.377-.337 1.977-.219.596-.529 1.111-.93 1.546-.4.429-.881.764-1.443 1.003-.561.239-1.181.359-1.86.359zm2.073-8.994v7.339h.791c.386 0 .73-.074 1.033-.22.307-.146.566-.359.776-.637.215-.279.378-.615.491-1.011.112-.4.168-.854.168-1.362v-.894c0-.478-.056-.913-.168-1.304-.108-.395-.271-.734-.491-1.018-.215-.283-.483-.503-.806-.659-.317-.156-.686-.234-1.106-.234zm34.926.007h-3.289v8.987h-2.065v-8.987h-3.245v-1.677h8.599zm7.176-1.677h6.167v1.663h-2.08v7.346h2.08v1.655h-6.167v-1.655h2.028v-7.346h-2.028zm16.309 9.001h4.995v1.663h-7.061v-10.664h2.066zm14.559 0h4.995v1.663h-7.061v-10.664h2.066zm26.869 1.663v-10.664h2.761c.708 0 1.348.122 1.919.366.576.239 1.067.576 1.472 1.011.41.43.725.945.945 1.545.224.601.337 1.26.337 1.978v.879c0 .718-.113 1.377-.337 1.977-.22.596-.53 1.111-.93 1.546-.401.429-.882.764-1.443 1.003-.562.239-1.182.359-1.861.359zm2.072-8.994v7.339h.791c.386 0 .73-.074 1.033-.22.308-.146.567-.359.777-.637.214-.279.378-.615.49-1.011.113-.4.169-.854.169-1.362v-.894c0-.478-.056-.913-.169-1.304-.107-.395-.271-.734-.49-1.018-.215-.283-.484-.503-.806-.659-.317-.156-.686-.234-1.106-.234zm19.093 4.321h-4.38v3.01h5.12v1.663h-7.185v-10.664h7.163v1.677h-5.098v2.688h4.38zm15.401 1.333c-.034.537-.151 1.021-.352 1.45-.195.43-.459.796-.791 1.099s-.727.537-1.186.703c-.459.161-.967.242-1.524.242-.629 0-1.188-.115-1.677-.344-.488-.235-.898-.56-1.23-.975-.332-.419-.586-.922-.762-1.508s-.264-1.231-.264-1.934v-1.435c0-.708.093-1.355.279-1.941.185-.586.449-1.089.791-1.509.341-.42.754-.745 1.237-.974.489-.235 1.036-.352 1.641-.352.586 0 1.106.083 1.56.249.459.166.85.403 1.172.711.322.307.576.683.762 1.128.185.444.303.944.351 1.501h-2.05c-.02-.317-.069-.596-.147-.835-.073-.239-.183-.437-.33-.593-.141-.161-.322-.281-.542-.359-.214-.083-.473-.125-.776-.125-.317 0-.593.069-.828.205-.234.137-.429.337-.585.601-.152.264-.264.588-.337.974-.074.381-.11.816-.11 1.304v1.45c0 1.05.146 1.826.439 2.329.298.503.767.755 1.406.755.538 0 .962-.142 1.275-.425.312-.288.486-.752.52-1.392zm13.716-1.333h-4.379v3.01h5.119v1.663h-7.185v-10.664h7.163v1.677h-5.097v2.688h4.379zm10.524-5.991 1.01 4.006 1.15-4.006h2.556v10.664h-1.889v-3.157l.088-4.988-1.399 4.629h-1.018l-1.253-4.431.088 4.79v3.157h-1.889v-10.664zm12.017 10.664v-10.664h3.582c.581 0 1.108.059 1.582.176.478.117.886.295 1.223.534.337.24.595.542.776.909.186.366.278.798.278 1.296-.005.498-.139.945-.402 1.34-.259.396-.643.696-1.15.901.307.078.573.196.798.352s.41.342.557.556c.151.21.261.442.329.696.073.249.11.508.11.777 0 .512-.088.964-.264 1.355-.175.39-.427.717-.754.981s-.725.461-1.194.593-.996.198-1.582.198zm2.065-4.702v3.039h1.831c.562-.004.989-.141 1.282-.41.298-.273.447-.63.447-1.069.005-.488-.127-.869-.396-1.143-.268-.273-.683-.412-1.245-.417zm0-1.487h1.531c.571-.005 1.011-.124 1.319-.359.307-.234.463-.578.468-1.033 0-.498-.154-.854-.461-1.069-.308-.22-.752-.332-1.333-.337h-1.524zm19.071 1.516h-4.38v3.01h5.12v1.663h-7.185v-10.664h7.163v1.677h-5.098v2.688h4.38zm11.614.689h-1.56v3.984h-2.058v-10.664h3.574c.591 0 1.126.071 1.604.212.479.137.887.34 1.224.608.341.269.603.603.783 1.004.186.4.279.864.279 1.391 0 .381-.047.725-.14 1.033-.088.303-.217.576-.388.82-.166.24-.368.45-.608.63-.234.181-.498.337-.791.469l2.293 4.402v.095h-2.205zm-1.56-1.67h1.524c.581 0 1.028-.147 1.34-.44.317-.298.476-.703.476-1.216 0-.532-.154-.944-.461-1.237-.308-.298-.762-.447-1.363-.447h-1.516z" fill-opacity=".81"/><path d="m181.214 45.4922.01 8.9526c0 .7546-.106 1.4256-.316 2.0132-.204.5876-.504 1.0855-.9 1.4937-.389.402-.869.7081-1.438.9184-.563.2103-1.206.3154-1.929.3154-.681 0-1.296-.1051-1.847-.3154-.544-.2103-1.011-.5164-1.4-.9184-.39-.4021-.693-.8968-.91-1.4844-.21-.5938-.315-1.2679-.315-2.0225l.009-8.9526h2.607l.009 8.9526c.007.8721.164 1.5308.474 1.9761.315.4453.773.668 1.373.668.637 0 1.122-.2227 1.456-.668.34-.4453.514-1.104.52-1.9761l.009-8.9526zm11.426 9.9824c0-.2412-.043-.467-.13-.6772-.08-.2103-.222-.4051-.427-.5845-.197-.1856-.46-.3525-.788-.501-.322-.1546-.724-.2969-1.206-.4267-.588-.1609-1.151-.3619-1.689-.6031-.532-.2412-1.002-.5319-1.41-.872-.408-.3402-.736-.736-.983-1.1875-.241-.4515-.362-.9711-.362-1.5586 0-.569.121-1.0855.362-1.5494.241-.4638.575-.8597 1.002-1.1875s.931-.5782 1.512-.7514c.581-.1794 1.212-.2691 1.893-.2691.705 0 1.348.1021 1.929.3062.588.2041 1.092.4917 1.512.8628.421.3649.749.8009.984 1.3081s.352 1.0638.352 1.6699h-2.542c-.012-.303-.068-.5814-.167-.8349-.092-.2536-.235-.4701-.426-.6495-.186-.1855-.421-.3278-.705-.4267-.279-.1052-.607-.1577-.984-.1577-.346 0-.655.0433-.928.1298-.265.0805-.491.198-.677.3526-.185.1484-.328.3278-.427.5381-.092.2041-.139.4267-.139.6679 0 .2536.062.4825.186.6866.13.2041.315.3896.556.5566.242.1608.532.3093.873.4453.346.1361.736.2629 1.168.3804.619.1794 1.188.3989 1.708.6587.519.2597.964.569 1.335.9277.378.3526.668.7577.873 1.2153.21.4515.315.9556.315 1.5123 0 .5937-.121 1.1225-.362 1.5864-.235.4577-.563.8473-.983 1.1689-.421.3155-.922.5567-1.503.7237-.582.1608-1.216.2412-1.902.2412-.427 0-.854-.0402-1.28-.1206-.421-.0743-.826-.1918-1.216-.3526-.383-.1608-.742-.3618-1.076-.603s-.624-.5226-.872-.8442c-.241-.3217-.433-.6866-.575-1.0948-.136-.4082-.204-.8597-.204-1.3545h2.56c.013.4082.084.7577.214 1.0484s.309.5288.538.7143c.235.1856.513.3217.835.4082.328.0866.686.1299 1.076.1299.346 0 .652-.0402.918-.1206.273-.0804.501-.1917.687-.334.185-.1422.328-.3123.427-.5102.099-.2041.148-.4268.148-.668zm14.71-2.3935h-5.548v3.8129h6.485v2.106h-9.101v-13.5078h9.073v2.1245h-6.457v3.4048h5.548zm28.437-5.4644h-4.166v11.3833h-2.616v-11.3833h-4.11v-2.1245h10.892zm12.4 11.3833h-2.58v-5.854h-3.822v5.854h-2.588v-13.5078h2.588v5.5386h3.822v-5.5386h2.58zm12.808-5.9189h-5.548v3.8129h6.485v2.106h-9.101v-13.5078h9.073v2.1245h-6.457v3.4048h5.548zm-80.207 26.3247h-5.789v5.5942h-2.617v-13.5078h9.129v2.1245h-6.512v3.6738h5.789zm14.264-.167c0 .8659-.114 1.6637-.343 2.3935s-.56 1.3576-.993 1.8833-.961.937-1.586 1.2339c-.619.2907-1.318.436-2.097.436s-1.472-.1453-2.078-.436c-.606-.2969-1.116-.7082-1.531-1.2339-.414-.5319-.73-1.1596-.946-1.8833-.216-.7298-.325-1.5276-.325-2.3935v-1.9668c0-.8659.109-1.6638.325-2.3936s.532-1.3576.946-1.8833c.415-.5319.922-.9463 1.522-1.2431.606-.2969 1.299-.4454 2.078-.4454.785 0 1.487.1485 2.106.4454.625.2968 1.153.7112 1.586 1.2431.433.5257.764 1.1535.993 1.8833s.343 1.5277.343 2.3936zm-2.644-1.9854c0-.5504-.046-1.0576-.139-1.5215-.087-.4638-.226-.8628-.417-1.1967-.192-.334-.44-.5938-.743-.7793-.297-.1918-.658-.2876-1.085-.2876-.421 0-.773.0958-1.058.2876-.284.1855-.513.4453-.686.7793-.173.3339-.297.7329-.371 1.1967-.075.4639-.112.9711-.112 1.5215v1.9854c0 .5442.037 1.0483.112 1.5122.074.4638.198.8659.371 1.206.173.3402.402.6062.686.7979.285.1917.64.2876 1.067.2876.421 0 .779-.0959 1.076-.2876.303-.1917.548-.4546.733-.7886.192-.3402.334-.7422.427-1.206.093-.4639.139-.9711.139-1.5215zm9.422 5.6406h6.327v2.106h-8.943v-13.5078h2.616zm13.411 0h6.327v2.106h-8.943v-13.5078h2.616zm20.045-3.6552c0 .8659-.115 1.6637-.344 2.3935-.228.7298-.559 1.3576-.992 1.8833s-.962.937-1.587 1.2339c-.618.2907-1.317.436-2.096.436-.78 0-1.472-.1453-2.079-.436-.606-.2969-1.116-.7082-1.53-1.2339-.415-.5319-.73-1.1596-.947-1.8833-.216-.7298-.324-1.5276-.324-2.3935v-1.9668c0-.8659.108-1.6638.324-2.3936.217-.7298.532-1.3576.947-1.8833.414-.5319.921-.9463 1.521-1.2431.606-.2969 1.299-.4454 2.078-.4454.786 0 1.488.1485 2.106.4454.625.2968 1.154.7112 1.587 1.2431.433.5257.764 1.1535.992 1.8833.229.7298.344 1.5277.344 2.3936zm-2.644-1.9854c0-.5504-.047-1.0576-.14-1.5215-.086-.4638-.225-.8628-.417-1.1967-.192-.334-.439-.5938-.742-.7793-.297-.1918-.659-.2876-1.086-.2876-.42 0-.773.0958-1.057.2876-.285.1855-.514.4453-.687.7793-.173.3339-.297.7329-.371 1.1967-.074.4639-.111.9711-.111 1.5215v1.9854c0 .5442.037 1.0483.111 1.5122.074.4638.198.8659.371 1.206.173.3402.402.6062.687.7979.284.1917.64.2876 1.067.2876.42 0 .779-.0959 1.076-.2876.303-.1917.547-.4546.733-.7886.191-.3402.334-.7422.426-1.206.093-.4639.14-.9711.14-1.5215zm13.234 2.375.984-8.1362h2.393l-1.874 13.5078h-2.356l-1.28-7.9785-1.234 7.9785h-2.357l-1.855-13.5078h2.384l.965 8.0806 1.15-8.0806h1.865zm7.381-8.1362h7.812v2.1059h-2.635v9.3052h2.635v2.0967h-7.812v-2.0967h2.57v-9.3052h-2.57zm21.743 13.5078h-2.598l-3.757-8.7114v8.7114h-2.626v-13.5078h2.626l3.729 8.6743.009-8.6743h2.617zm13.791-1.5771c-.167.2041-.396.4112-.687.6215-.29.2103-.637.4021-1.039.5752-.395.167-.841.3031-1.336.4082-.494.1052-1.026.1577-1.595.1577-.767 0-1.46-.136-2.078-.4082-.619-.2721-1.148-.6648-1.587-1.1782-.439-.5133-.779-1.1411-1.02-1.8833-.235-.7484-.353-1.5957-.353-2.542v-1.8369c0-.9463.124-1.7905.371-2.5327.254-.7484.6-1.3823 1.039-1.9019.446-.5195.965-.9153 1.559-1.1875.6-.2721 1.249-.4082 1.948-.4082.761 0 1.423.0959 1.986.2876.569.1918 1.048.4701 1.438.835.389.3587.692.7979.909 1.3174.222.5195.368 1.104.436 1.7534h-2.542c-.087-.6927-.297-1.2122-.631-1.5586-.328-.3525-.838-.5288-1.531-.5288-.334 0-.643.0866-.928.2598-.284.167-.532.4144-.742.7422s-.377.736-.501 1.2246c-.123.4824-.185 1.0421-.185 1.6792v1.8554c.006 1.2617.216 2.2297.631 2.9038.414.668 1.048 1.0051 1.901 1.0113.204 0 .406-.0155.603-.0464.198-.0309.384-.0742.557-.1299s.325-.1175.455-.1855c.136-.0743.238-.1516.306-.232l.009-2.4492h-2.236v-1.9482h4.834zm26.915-2.6534c-.043.6804-.192 1.2927-.445 1.8369-.248.5443-.582 1.0082-1.002 1.3916-.421.3835-.922.6804-1.503.8907-.582.2041-1.225.3061-1.93.3061-.798 0-1.506-.1453-2.124-.436-.619-.2969-1.138-.7082-1.559-1.2339-.421-.5319-.742-1.1689-.965-1.9111-.222-.7422-.334-1.5586-.334-2.4492v-1.8184c0-.8968.118-1.7163.353-2.4585s.569-1.3792 1.002-1.9111.955-.9432 1.568-1.2339c.618-.2969 1.311-.4453 2.078-.4453.742 0 1.401.1051 1.976.3154.581.2103 1.076.5102 1.484.8999.408.3896.73.8659.965 1.4287s.383 1.1968.445 1.9019h-2.597c-.025-.4021-.087-.7546-.186-1.0577-.093-.303-.232-.5535-.417-.7514-.18-.2041-.409-.3557-.687-.4546-.272-.1052-.6-.1577-.983-.1577-.402 0-.752.0866-1.049.2597-.296.1732-.544.4268-.742.7608-.192.334-.334.7453-.427 1.2339-.092.4824-.139 1.0328-.139 1.6513v1.837c0 1.3297.186 2.3131.557 2.9501.377.6371.971.9556 1.781.9556.681 0 1.219-.1793 1.614-.5381.396-.3649.616-.9524.659-1.7627zm13.458-1.5307c0 .8659-.115 1.6637-.344 2.3935s-.559 1.3576-.992 1.8833-.962.937-1.587 1.2339c-.618.2907-1.317.436-2.096.436-.78 0-1.472-.1453-2.079-.436-.606-.2969-1.116-.7082-1.53-1.2339-.415-.5319-.73-1.1596-.947-1.8833-.216-.7298-.324-1.5276-.324-2.3935v-1.9668c0-.8659.108-1.6638.324-2.3936.217-.7298.532-1.3576.947-1.8833.414-.5319.921-.9463 1.521-1.2431.606-.2969 1.299-.4454 2.078-.4454.786 0 1.488.1485 2.106.4454.625.2968 1.154.7112 1.587 1.2431.433.5257.763 1.1535.992 1.8833s.344 1.5277.344 2.3936zm-2.644-1.9854c0-.5504-.047-1.0576-.14-1.5215-.086-.4638-.225-.8628-.417-1.1967-.192-.334-.439-.5938-.742-.7793-.297-.1918-.659-.2876-1.086-.2876-.42 0-.773.0958-1.057.2876-.285.1855-.514.4453-.687.7793-.173.3339-.297.7329-.371 1.1967-.074.4639-.111.9711-.111 1.5215v1.9854c0 .5442.037 1.0483.111 1.5122.074.4638.198.8659.371 1.206.173.3402.402.6062.687.7979.284.1917.64.2876 1.067.2876.42 0 .779-.0959 1.076-.2876.303-.1917.547-.4546.733-.7886.191-.3402.334-.7422.426-1.206.093-.4639.14-.9711.14-1.5215zm6.573 7.7466v-13.5078h3.498c.897 0 1.707.1546 2.43.4639.73.303 1.352.7298 1.865 1.2802.52.5443.919 1.1968 1.197 1.9575.285.7608.427 1.5958.427 2.5049v1.1133c0 .9092-.142 1.7442-.427 2.5049-.278.7546-.671 1.4071-1.178 1.9575-.507.5443-1.117.968-1.828 1.271-.711.3031-1.497.4546-2.356.4546zm2.626-11.3926v9.2959h1.002c.488 0 .924-.0928 1.308-.2783.389-.1855.717-.4546.983-.8071.272-.3526.48-.7793.622-1.2803.142-.5072.213-1.0824.213-1.7256v-1.1318c0-.6061-.071-1.1566-.213-1.6514-.136-.501-.343-.9308-.622-1.2895-.272-.3588-.612-.6371-1.02-.835-.402-.1979-.869-.2969-1.401-.2969zm19.154 5.4737h-5.548v3.8129h6.485v2.106h-9.102v-13.5078h9.074v2.1245h-6.457v3.4048h5.548z" fill-opacity=".83"/></g></svg>