<svg fill="none" height="80" viewBox="0 0 80 80" width="80" xmlns="http://www.w3.org/2000/svg"><g fill="#f2545b"><circle cx="40" cy="40" fill-opacity=".15" r="40"/><path d="m49.25 38.6667c-.3833-.5-.8333-.9334-1.2667-1.3667-1.0833-1-2.3333-1.7167-3.3833-2.7667-2.4333-2.4333-2.9333-6.45-1.4167-9.5333-1.5166.3833-2.9166 1.25-4.0833 2.2-4.2333 3.4667-5.9 9.5833-3.9 14.8333.0667.1667.1333.3334.1333.55 0 .3667-.25.7-.5833.8334-.3667.1666-.7667.0666-1.0667-.2-.1-.0834-.1666-.1667-.25-.2834-1.8333-2.3833-2.1333-5.8-.8833-8.5333-2.7333 2.2667-4.2167 6.1-3.9833 9.7167.0666.8333.1666 1.6666.45 2.5.2333 1 .6666 2 1.2 2.8833 1.7333 2.8833 4.7833 4.95 8.0666 5.3667 3.5.45 7.25-.2 9.9334-2.6667 3-2.7667 4.0833-7.2 2.5-11l-.2167-.4333c-.3333-.7667-.7833-1.45-1.3333-2.0834zm-5.1667 10.5c-.4666.4-1.2166.8333-1.8 1-1.8333.6666-3.6666-.2667-4.7833-1.3667 1.9833-.4667 3.15-1.9333 3.4833-3.4167.2834-1.3333-.2333-2.4333-.45-3.7166-.2-1.2334-.1666-2.2834.3-3.4334.2834.6334.6167 1.2667 1 1.7667 1.2667 1.6667 3.25 2.4 3.6667 4.6667.0667.2333.1.4666.1.7166.05 1.3667-.5333 2.8667-1.5333 3.7834z"/></g></svg>