<svg fill="none" height="80" viewBox="0 0 80 80" width="80" xmlns="http://www.w3.org/2000/svg"><circle cx="40" cy="40" fill="#3e4676" fill-opacity=".15" r="40"/><g stroke="#3e4676" stroke-linecap="round" stroke-linejoin="round" stroke-width="2"><path d="m53.3334 40v16.6667h-26.6667v-16.6667"/><path d="m56.6666 31.6667h-33.3333v8.3333h33.3333z"/><path d="m40 56.6667v-25"/><path d="m40 31.6667h-7.5c-1.1051 0-2.1649-.439-2.9463-1.2204s-1.2204-1.8412-1.2204-2.9463.439-2.1649 1.2204-2.9463 1.8412-1.2204 2.9463-1.2204c5.8333 0 7.5 8.3334 7.5 8.3334z"/><path d="m40 31.6667h7.5c1.1051 0 2.1649-.439 2.9463-1.2204s1.2204-1.8412 1.2204-2.9463-.439-2.1649-1.2204-2.9463-1.8412-1.2204-2.9463-1.2204c-5.8333 0-7.5 8.3334-7.5 8.3334z"/></g></svg>