<svg fill="none" height="173" viewBox="0 0 189 173" width="189" xmlns="http://www.w3.org/2000/svg"><rect fill="#f2f2f2" height="121.663" rx="8" width="139.244" x="25.2622"/><path d="m25.2622 8c0-4.41827 3.5817-8 8-8h123.2438c4.418 0 8 3.58172 8 8v1.4939h-139.2438z" fill="#c5cfd6"/><path clip-rule="evenodd" d="m29.8333 6.32926c.7768 0 1.4065-.62971 1.4065-1.4065s-.6297-1.40651-1.4065-1.40651-1.4065.62972-1.4065 1.40651.6297 1.4065 1.4065 1.4065z" fill="#f2f2f2" fill-rule="evenodd"/><path clip-rule="evenodd" d="m34.0528 6.32927c.7768 0 1.4065-.62972 1.4065-1.40651s-.6297-1.4065-1.4065-1.4065c-.7767 0-1.4065.62971-1.4065 1.4065s.6298 1.40651 1.4065 1.40651z" fill="#f2f2f2" fill-rule="evenodd"/><path clip-rule="evenodd" d="m38.2724 6.32927c.7767 0 1.4065-.62972 1.4065-1.40651s-.6298-1.4065-1.4065-1.4065c-.7768 0-1.4065.62971-1.4065 1.4065s.6297 1.40651 1.4065 1.40651z" fill="#f2f2f2" fill-rule="evenodd"/><rect fill="#fff" height="68.2154" rx="8" width="24.6138" x="134.266" y="46.4146"/><rect fill="#dde3e9" height="9.14228" rx="4" width="11.9553" x="140.596" y="52.7439"/><rect fill="#afb9c5" height="8.79065" rx="4" width="11.9553" x="140.596" y="64.6992"/><rect fill="#dde3e9" height="8.79065" rx="4" width="11.9553" x="140.596" y="76.3028"/><rect fill="#dde3e9" height="8.79065" rx="4" width="11.9553" x="140.596" y="99.5102"/><rect fill="#c5cfd6" height="8.79065" rx="4" width="11.9553" x="140.596" y="87.9065"/><rect fill="#fff" height="28.4817" rx="8" width="24.6138" x="134.266" y="15.1199"/><path clip-rule="evenodd" d="m146.573 31.6463c3.107 0 5.626-2.5188 5.626-5.626 0-3.1071-2.519-5.626-5.626-5.626s-5.626 2.5189-5.626 5.626c0 3.1072 2.519 5.626 5.626 5.626z" fill="#dde3e9" fill-rule="evenodd"/><rect fill="#dde3e9" height="2.10976" rx="1.05488" width="17.5813" x="137.783" y="33.0528"/><rect fill="#dde3e9" height="2.10976" rx="1.05488" width="11.9553" x="140.596" y="36.5691"/><rect fill="#fff" height="16.5264" rx="4" width="100.565" x="30.8882" y="15.1199"/><rect fill="#dde3e9" height="2.47896" rx="1.23948" width="80.1707" x="34.0528" y="20.0779"/><rect fill="#dde3e9" height="2.47896" rx="1.23948" width="53.8132" x="34.0528" y="24.2094"/><path clip-rule="evenodd" d="m120.706 25.8445c1.359 0 2.461-1.102 2.461-2.4614s-1.102-2.4614-2.461-2.4614c-1.36 0-2.462 1.102-2.462 2.4614s1.102 2.4614 2.462 2.4614z" fill="#dde3e9" fill-rule="evenodd"/><path clip-rule="evenodd" d="m120.706 24.438c.582 0 1.055-.4723 1.055-1.0549s-.473-1.0548-1.055-1.0548c-.583 0-1.055.4722-1.055 1.0548s.472 1.0549 1.055 1.0549z" fill="#f2f2f2" fill-rule="evenodd"/><rect fill="#fff" height="13.7134" rx="4" width="100.565" x="30.8882" y="34.4594"/><rect fill="#dde3e9" height="2.05701" rx="1.02851" width="80.1707" x="34.0528" y="38.5734"/><rect fill="#dde3e9" height="2.05701" rx="1.02851" width="53.8132" x="34.0528" y="42.0017"/><path clip-rule="evenodd" d="m120.706 43.7774c1.359 0 2.461-1.102 2.461-2.4614 0-1.3593-1.102-2.4613-2.461-2.4613-1.36 0-2.462 1.102-2.462 2.4613 0 1.3594 1.102 2.4614 2.462 2.4614z" fill="#dde3e9" fill-rule="evenodd"/><path clip-rule="evenodd" d="m120.706 42.3709c.582 0 1.055-.4723 1.055-1.0549 0-.5825-.473-1.0548-1.055-1.0548-.583 0-1.055.4723-1.055 1.0548 0 .5826.472 1.0549 1.055 1.0549z" fill="#f2f2f2" fill-rule="evenodd"/><rect fill="#fff" height="13.7134" rx="4" width="100.565" x="30.8882" y="50.9858"/><rect fill="#dde3e9" height="2.05701" rx="1.02851" width="80.1707" x="34.0528" y="55.0998"/><rect fill="#dde3e9" height="2.05701" rx="1.02851" width="53.8132" x="34.0528" y="58.5282"/><path clip-rule="evenodd" d="m120.706 60.3039c1.359 0 2.461-1.102 2.461-2.4614s-1.102-2.4614-2.461-2.4614c-1.36 0-2.462 1.102-2.462 2.4614s1.102 2.4614 2.462 2.4614z" fill="#dde3e9" fill-rule="evenodd"/><path clip-rule="evenodd" d="m120.706 58.8974c.582 0 1.055-.4723 1.055-1.0549s-.473-1.0549-1.055-1.0549c-.583 0-1.055.4723-1.055 1.0549s.472 1.0549 1.055 1.0549z" fill="#afb9c5" fill-rule="evenodd"/><rect fill="#fff" height="13.7134" rx="4" width="100.565" x="30.8882" y="100.565"/><rect fill="#dde3e9" height="2.05701" rx="1.02851" width="80.1707" x="34.0528" y="104.679"/><rect fill="#dde3e9" height="2.05701" rx="1.02851" width="53.8132" x="34.0528" y="108.107"/><path clip-rule="evenodd" d="m120.706 109.883c1.359 0 2.461-1.102 2.461-2.461 0-1.36-1.102-2.462-2.461-2.462-1.36 0-2.462 1.102-2.462 2.462 0 1.359 1.102 2.461 2.462 2.461z" fill="#dde3e9" fill-rule="evenodd"/><path clip-rule="evenodd" d="m120.706 108.477c.582 0 1.055-.473 1.055-1.055 0-.583-.473-1.055-1.055-1.055-.583 0-1.055.472-1.055 1.055 0 .582.472 1.055 1.055 1.055z" fill="#f2f2f2" fill-rule="evenodd"/><rect fill="#fff" height="13.7134" rx="4" width="100.565" x="30.8882" y="84.0386"/><rect fill="#dde3e9" height="2.05701" rx="1.02851" width="80.1707" x="34.0528" y="88.1526"/><rect fill="#dde3e9" height="2.05701" rx="1.02851" width="53.8132" x="34.0528" y="91.581"/><path clip-rule="evenodd" d="m120.706 93.3567c1.359 0 2.461-1.102 2.461-2.4614s-1.102-2.4614-2.461-2.4614c-1.36 0-2.462 1.102-2.462 2.4614s1.102 2.4614 2.462 2.4614z" fill="#dde3e9" fill-rule="evenodd"/><path clip-rule="evenodd" d="m120.706 91.9502c.582 0 1.055-.4723 1.055-1.0549s-.473-1.0549-1.055-1.0549c-.583 0-1.055.4723-1.055 1.0549s.472 1.0549 1.055 1.0549z" fill="#f2f2f2" fill-rule="evenodd"/><rect fill="#fff" height="13.7134" rx="4" width="100.565" x="30.8882" y="67.5122"/><rect fill="#dde3e9" height="2.05701" rx="1.02851" width="80.1707" x="34.0528" y="71.6262"/><rect fill="#dde3e9" height="2.05701" rx="1.02851" width="53.8132" x="34.0528" y="75.0546"/><g clip-rule="evenodd" fill-rule="evenodd"><path d="m120.706 76.8303c1.359 0 2.461-1.102 2.461-2.4614s-1.102-2.4614-2.461-2.4614c-1.36 0-2.462 1.102-2.462 2.4614s1.102 2.4614 2.462 2.4614z" fill="#dde3e9"/><path d="m120.706 75.4238c.582 0 1.055-.4723 1.055-1.0549s-.473-1.0549-1.055-1.0549c-.583 0-1.055.4723-1.055 1.0549s.472 1.0549 1.055 1.0549z" fill="#f2f2f2"/><path d="m43.9494 64.1048c2.1763.9239 4.23 1.2295 5.1221.8615 2.2372-.9226 1.2608-9.4178-1.004-12.5026s-11.7013-3.2419-11.2374 3.4356c.1611 2.3175 1.4154 4.2297 3.0783 5.7001l-.8883 12.2583 7.4376-1.0453z" fill="#b28b67"/><path d="m44.6189 49.2419c-1.0598-.1662-2.5498-.0636-3.1605.0945.2346-.8929.2426-1.8522-.0002-2.7509-.2359-.8733-.7407-1.5742-1.2206-2.3156-.2212-.3417-.4648-.6782-.7911-.9175-.3323-.2438-.7288-.3798-1.1294-.415-.41-.036-.8242.03-1.2102.1692-.1707.0616-.3173.164-.4836.2328-.1703.0705-.2715-.0277-.4153-.1205-.3466-.2235-.8183-.2917-1.2159-.2839-.4461.0088-.8921.1387-1.2903.3413-.3876.1972-.7468.4795-.9947.852-.1104.1658-.2058.3503-.2572.5464-.021.0805-.0199.1263-.0921.1648-.0667.0357-.1489.048-.2181.0827-.6688.3358-1.1932.9611-1.4225 1.7016-.1337.432-.1238 1.158.0133 1.9541s1.1545 2.7807 1.9387 3.4465c.7.5943 1.6517.9176 2.5369.9933-.4781.7287-.7431 1.5926-.9075 2.4563-.1785.9383-.2361 1.8953-.1724 2.8531.0606.9101.1883 1.8635.524 2.7153.314.7965.8328 1.4133 1.6005 1.7429.3516.151.721.2496 1.0906.3353.3643.0844.729.165 1.1015.1887.7049.0449 1.4909-.0903 1.9422-.7081.1626-.2227.3372-.4984.4423-.7573.0378-.0931.06-.1537-.0125-.2293-.0867-.0906-.2151-.1513-.3194-.2171-.5952-.3748-1.0088-.9287-1.1921-1.6303-.1859-.7119-.1222-1.6734.5392-2.0884.8163-.5123 1.8386-.1997 2.6716.1087.1663-1.2042.6955-2.3418 1.6802-3.0218 1.0894-.7524 2.4246-1.0101 3.5581-1.6836.2954-.1755.5941-.3695.7875-.6697.0809-.1255.1737-.2865.1915-.4399.0233-.2015-.1253-.3468-.2437-.4847-.6279-.731-2.8091-2.0798-3.8688-2.2459z" fill="#191847"/><path d="m41.6831 98.4305 23.254 38.7595 17.4338 32.768h3.7551l-29.2106-71.5275z" fill="#997659"/><path d="m82.3466 168.592c-1.1398-.26-2.4417.135-2.7022 1.275-.0577.252-.0947.486-.0947.67 0 .844.2821 2.463.2821 2.463h17.6508s.688-2.268-.7944-2.449c-1.4823-.18-2.4628-.326-2.4628-.326l-7.5599-3.36c-.5141-.229-1.1154.012-1.3303.531l-.2578.624s-1.3723.638-2.2302.638c-.1473 0-.3183-.025-.5006-.066z" fill="#e4e4e4"/><path d="m77.5291 164.711 7.2416-2.184s-4.7591-14.185-11.666-31.219c-6.9068-17.034-14.8354-32.8775-14.8354-32.8775h-20.4529s8.8148 20.0405 18.6898 36.4195c9.875 16.378 21.0229 29.861 21.0229 29.861z" fill="#89c5cc"/><path d="m40.1549 98.4305c-2.1947 13.6205-6.4278 31.0225-6.8273 31.5595-.2663.358-9.854 3.561-28.76317 9.609l.81114 3.301c22.54913-3.244 34.43053-5.76 35.64433-7.55 1.8207-2.684 10.9118-23.889 14.4329-36.9195z" fill="#b28b67"/><path d="m11.2113 136.745 1.4288 5.317c16.8654 1.475 27.1992.409 31.0014-3.197s8.1356-17.084 13.0002-40.4345h-19.5031c-3.0821 19.1205-4.8052 29.0825-5.1693 29.8855s-7.2834 3.612-20.758 8.429z" fill="#68a1ac"/><path d="m5.73961 140.494c.05452-1.171-.56115-2.39-1.73262-2.447-.25778-.012-.4931-.008-.67377.024-.83364.147-2.384002.705-2.384002.705.170522.964 3.065022 17.33 3.065022 17.33s2.3595.282 2.2807-1.205-.10513-2.475-.10513-2.475l2.00474-8c.13709-.547-.20552-1.099-.75682-1.22l-.65846-.145s-.86884-1.236-1.01782-2.079c-.02492-.141-.03025-.308-.02184-.488z" fill="#e4e4e4"/><path d="m63.6835 70.9239-9.9312 7.3854 4.5697 3.6923 6.8132-8.2333c3.9584-1.71 5.7251-2.8022 5.2999-3.2767-.3585-.4001-.8344-.3176-1.2727-.2416-.3415.0592-.6601.1145-.8828-.0654-.5085-.4109.1024-2.1831.7542-3.8403.6519-1.6571-.2571-1.3931-.7565-1.0977-1.5714 1.4157-3.1027 3.3081-4.5938 5.6773zm11.9734 6.7216-4.3612 3.2519.9334 4.6895s2.7507-2.6322 5.2806-3.734c3.2258-1.405 4.4838-2.3085 5.8313-4.6229.721-1.2383 1.1509-3.5844.2129-4.1969-.3598-.235-1.4609.5944-2.5843 1.4405-.8563.6449-1.7255 1.2996-2.2895 1.5004-.7592.2704-.8096-.7527-.8499-1.5703-.029-.5867-.0527-1.0675-.3293-.8887-1.3798.2181-1.844 4.1305-1.844 4.1305z" fill="#997659"/><path d="m48.3299 77.7371c3.7621-.5692 8.6748-2.0687 13.5588-6.2147l2.7632 4.3849c-3.1836 4.1784-7.9606 7.9152-12.5247 8.4269-3.5968.4032-6.0351-3.66-3.7973-6.5971z" fill="#27325c"/><path d="m42.6754 111.234c-3.6473.038-6.9987.073-8.8952.73-3.1842-6.778-1.9941-11.495-.8954-15.8492.6622-2.6242 1.2911-5.1168.9092-7.8496-1.1124-7.9581 3.5749-21.1071 4.5178-21.2396l.2706-.038 7.4726-1.0502.8555-.1202c1.0765 4.8701 3.4666 9.971 5.872 15.1046.5618 1.1989 1.1243 2.3996 1.6712 3.5995 6.4479.536 19.6323-6.3371 19.6323-6.3371s4.5184 6.733 4.6865 9.8471c-7.4856 5.3414-14.1445 8.1897-19.8303 9.115.6554 3.3487.6947 6.6167-.2768 9.7447-1.3016 4.191-9.164 4.272-15.99 4.343z" fill="#303d72"/><path d="m135.819 64.0216c-1.863 1.4557-3.768 2.2824-4.725 2.1579-2.399-.3122-3.655-8.7706-2.266-12.3365s10.464-6.16 11.744.4101c.444 2.2802-.273 4.4519-1.498 6.3026l4.03 11.6106-7.454.9154z" fill="#fbad83"/><path d="m132.604 49.4662c.963-.2813 3.595-.7166 4.082-.7764.312-.0383.659-.0087.808-.3168.123-.2523.019-.6408.031-.9176.014-.3215.05-.6416.087-.9611.106-.909.327-1.7886.683-2.6328.669-1.5838 1.773-2.8955 3.263-3.7629 1.646-.9578 3.59-1.3696 5.477-1.4481 2.02-.0839 3.911.3519 5.875.7394 1.871.3693 3.784.3702 5.63-.149 1.86-.5231 3.167-1.7234 4.647-2.8921 1.515-1.1964 3.305-2.0771 5.259-2.1651 1.824-.082 3.58.4572 5.196 1.2672 1.511.7578 2.802 1.7345 3.646 3.2284.908 1.607 1.136 3.4654.168 5.1031-1.403 2.3737-4.434 3.3151-7.019 3.576-1.495.1509-2.993.0593-4.462-.2615-1.959-.428-3.719-1.3448-5.587-2.0347-.876-.3237-1.771-.5681-2.695-.7098-.897-.1376-1.765-.1448-2.485.4737-.763.6542-1.44 1.288-2.347 1.7504-.871.4436-1.813.7476-2.785.8593-1.89.2173-3.824-.1408-5.707-.3085-1.535-.1368-3.175-.2596-4.662.2357-.621.2067-1.518.5862-1.667 1.2738 3.955.224 6.06 4.8074 5.399 8.4428-.357 1.9622-3.623 4.606-5.121 3.7813-.949-.5224-.521-1.4137-.246-2.0013.528-1.1252.587-2.4947-.716-3.073-1.123-.4988-2.041 1.126-2.062 1.1269-.29.0128-2.948-1.0836-4.912-2.9186-1.677.3073-2.07-.7719-1.778-1.7298.292-.9578 2.67-2.4101 4-2.7989z" fill="#191847"/><path d="m151.913 98.4305c-.564 7.6785-36.916 30.2845-37.128 30.9185-.141.423 11.315 26.733 11.315 26.733l-3.178 1.232s-17.572-27.865-16.669-30.834c1.292-4.251 28.205-27.9678 28.205-27.9678z" fill="#fbad83"/><path d="m125.264 152.121-5.188 1.883c-10.94-12.306-15.228-22.46-14.446-27.634.781-5.173 28.107-27.9207 28.107-27.9207h18.548c-.633 17.7817-34.326 30.9677-34.777 31.7257-.45.757 3.985 8.179 7.756 21.946z" fill="#2f3676"/><path d="m125.183 156.391c.983-.633 2.343-.706 2.979.276.14.218.255.424.318.597.29.793.58 2.411.58 2.411-.923.335-16.586 6.019-16.586 6.019s-1.425-1.897-.094-2.572c1.331-.676 2.203-1.147 2.203-1.147l5.95-5.735c.405-.39 1.053-.369 1.434.046l.455.498s1.509.132 2.315-.161c.138-.05.29-.131.446-.232z" fill="#e4e4e4"/><path d="m147.734 98.4305 16.193 38.7595 15.916 32.768h-3.755l-41.083-71.5275z" fill="#fbad83"/><path d="m177.796 168.592c1.14-.26 2.442.135 2.702 1.275.058.252.095.486.095.67 0 .844-.282 2.463-.282 2.463-.982 0-17.651 0-17.651 0s-.688-2.268.794-2.449c1.483-.18 2.463-.326 2.463-.326l7.56-3.36c.514-.229 1.116.012 1.331.531l.257.624s1.373.638 2.231.638c.147 0 .318-.025.5-.066z" fill="#e4e4e4"/><path d="m178.406 163.151-8.344 1.56c-6.451-9.456-33.451-48.23-36.411-66.2805h18.575c9.886 13.0485 20.03 55.1075 26.18 64.7205z" fill="#5c63ab"/><path d="m107.268 89.0475 11.86 3.546-3.031 5.0314-9.22-5.4083c-4.305-.2541-6.339-.6767-6.102-1.2679.2-.4984.676-.5835 1.113-.6619.342-.061.66-.118.808-.3632.337-.5598-.844-2.0164-2.024-3.3509-1.1793-1.3345-.235-1.397.336-1.2901 1.961.7933 4.047 2.0483 6.26 3.7649zm51.318 1.357 6.211-2.0407c5.709 10.8134 9.046 16.7132 10.01 17.7002.707.724 4.715 2.319 7.391 3.106 1.075.315.961 1.202.696 1.513-1.675 1.967-3.504 1.574-5.495 1.147-.577-.124-1.167-.251-1.771-.324-1.563-.189-1.929.645-2.275 1.434-.306.698-.596 1.36-1.688 1.244.023-.214.054-.453.087-.712.214-1.674.53-4.142-.545-5.422-.552-.656-4.759-6.538-12.621-17.6455z" fill="#fbad83"/><path d="m138.217 67.5269-2.742-.1295c-5.156 6.3762-5.874 20.2623-9.552 22.5403-3.477 2.1537-8.905 1.1491-15.389-.311l-1.382 4.4706c6.391 5.3942 19.045 9.0607 23.558 5.5264 7.215-5.6504 6.955-22.6361 5.507-32.0968z" fill="#edb607"/><path d="m154.057 99.7416s-16.154 1.9834-23.765 2.9184c-1.086.133-1.073-1.455-1.013-2.264.694-9.3269 6.561-20.0097 4.97-32.9701l6.723-1.9134c6.787 8.3955 10.122 19.3485 13.085 34.2291z" fill="#dde3e9"/><path d="m141.336 65.4678.078-.0096c16.536 7.5587 27.626 21.0614 33.271 40.5078l-4.862 1.585c-3.77-3.428-8.612-9.2007-14.527-17.3186 2.131 5.0659 3.877 10.3156 4.84 15.3646l-21.392 2.626c-5.423-9.9258-.044-42.4315-.044-42.4315l1.477-.1814z" fill="#f9c200"/><path d="m82.9869 66.355c-.0003.0019-.0005.0037-.001.006.0005-.0019.0002-.0091.001-.006" fill="#c5cfd6"/><path d="m82.9859 66.358c.0001.0003 0 .0011.0001.0018-.0004-.0018.0014-.0076-.0001-.0018" fill="#c5cfd6"/><path d="m82.9906 66.3261c-.0007.0075-.0022.0147-.0032.0222.0005-.0037.0012-.0068.0017-.0106-.0133.0976-.0052.0343.0015-.0116" fill="#c5cfd6"/><path d="m82.9881 66.3486c-.0006.0034-.0011.0072-.0017.0106-.0052.0215.0017-.0106.0017-.0106" fill="#c5cfd6"/><path d="m82.9862 66.358c-.0001-.0003-.0001-.0003.0002-.0008-.0003.0005-.0003.0005-.0002.0008" fill="#c5cfd6"/><path d="m82.9852 66.3608c-.0011.0047.0056-.018 0 0z" fill="#c5cfd6"/><path d="m82.986 66.358.0005-.0008c-.0002.0004-.0001.0008-.0005.0008" fill="#c5cfd6"/></g><rect fill="#303d72" height="23.2073" rx="4" transform="matrix(.97029573 -.2419219 .2419219 .97029573 -10.827409 16.374427)" width="35.1626" x="61.2658" y="52.2783"/><path clip-rule="evenodd" d="m75.8002 55.6392-5.8417 18.4889 19.6795-4.9067z" fill="#000" fill-opacity=".2" fill-rule="evenodd"/><path clip-rule="evenodd" d="m87.0164 57.4049-5.7717 13.9092 17.3978-4.3378z" fill="#000" fill-opacity=".2" fill-rule="evenodd"/><path clip-rule="evenodd" d="m90.7784 56.6339c1.7901-.4463 2.8794-2.2593 2.4331-4.0494-.4463-1.79-2.2593-2.8794-4.0494-2.433-1.79.4463-2.8794 2.2592-2.433 4.0493.4463 1.7901 2.2592 2.8794 4.0493 2.4331z" fill="#fff" fill-rule="evenodd"/></svg>