<svg xmlns="http://www.w3.org/2000/svg" xmlns:xlink="http://www.w3.org/1999/xlink" width="800" zoomAndPan="magnify" viewBox="0 0 600 299.999988" height="400" preserveAspectRatio="xMidYMid meet" version="1.0"><defs><g/><clipPath id="136f8c83e6"><path d="M 12.804688 34.519531 L 587.304688 34.519531 L 587.304688 263.269531 L 12.804688 263.269531 Z M 12.804688 34.519531 " clip-rule="nonzero"/></clipPath><clipPath id="450cccdf65"><path d="M 385.714844 26.34375 L 434.464844 26.34375 L 434.464844 75.09375 L 385.714844 75.09375 Z M 385.714844 26.34375 " clip-rule="nonzero"/></clipPath><clipPath id="a35c1c5f16"><path d="M 412.945312 33.261719 L 586.945312 33.261719 L 586.945312 264.261719 L 412.945312 264.261719 Z M 412.945312 33.261719 " clip-rule="nonzero"/></clipPath><clipPath id="ff666e2d9f"><path d="M 388.6875 26.34375 L 437.4375 26.34375 L 437.4375 75.09375 L 388.6875 75.09375 Z M 388.6875 26.34375 " clip-rule="nonzero"/></clipPath><clipPath id="a5cc1d0a67"><path d="M 388.6875 233.765625 L 437.4375 233.765625 L 437.4375 273.515625 L 388.6875 273.515625 Z M 388.6875 233.765625 " clip-rule="nonzero"/></clipPath></defs><g clip-path="url(#136f8c83e6)"><path fill="#f2b632" d="M 35.316406 34.519531 L 564.792969 34.519531 C 577.21875 34.519531 587.296875 44.597656 587.296875 57.023438 L 587.296875 240.769531 C 587.296875 253.195312 577.21875 263.269531 564.792969 263.269531 L 35.316406 263.269531 C 22.886719 263.269531 12.8125 253.195312 12.8125 240.769531 L 12.8125 57.023438 C 12.8125 44.597656 22.886719 34.519531 35.316406 34.519531 " fill-opacity="1" fill-rule="nonzero"/></g><g clip-path="url(#450cccdf65)"><path fill="#fdfbfb" d="M 410.089844 26.34375 C 396.628906 26.34375 385.714844 37.257812 385.714844 50.71875 C 385.714844 64.179688 396.628906 75.09375 410.089844 75.09375 C 423.550781 75.09375 434.464844 64.179688 434.464844 50.71875 C 434.464844 37.257812 423.550781 26.34375 410.089844 26.34375 " fill-opacity="1" fill-rule="nonzero"/></g><g clip-path="url(#a35c1c5f16)"><path fill="#e7e8e2" d="M 435.414062 33.261719 L 564.476562 33.261719 C 576.886719 33.261719 586.945312 43.320312 586.945312 55.734375 L 586.945312 241.789062 C 586.945312 254.199219 576.886719 264.261719 564.476562 264.261719 L 435.414062 264.261719 C 423.007812 264.261719 412.949219 254.199219 412.949219 241.789062 L 412.949219 55.734375 C 412.949219 43.320312 423.007812 33.261719 435.414062 33.261719 " fill-opacity="1" fill-rule="nonzero"/></g><g clip-path="url(#ff666e2d9f)"><path fill="#fdfbfb" d="M 413.0625 26.34375 C 399.601562 26.34375 388.6875 37.257812 388.6875 50.71875 C 388.6875 64.179688 399.601562 75.09375 413.0625 75.09375 C 426.523438 75.09375 437.4375 64.179688 437.4375 50.71875 C 437.4375 37.257812 426.523438 26.34375 413.0625 26.34375 " fill-opacity="1" fill-rule="nonzero"/></g><g clip-path="url(#a5cc1d0a67)"><path fill="#fdfbfb" d="M 413.0625 233.765625 C 399.601562 233.765625 388.6875 242.664062 388.6875 253.640625 C 388.6875 264.617188 399.601562 273.515625 413.0625 273.515625 C 426.523438 273.515625 437.4375 264.617188 437.4375 253.640625 C 437.4375 242.664062 426.523438 233.765625 413.0625 233.765625 " fill-opacity="1" fill-rule="nonzero"/></g><path fill="#f2b632" d="M 416.238281 231.40625 L 416.238281 226.914062 L 416.988281 226.914062 L 416.988281 231.40625 M 416.238281 226.167969 L 416.238281 221.675781 L 416.988281 221.675781 L 416.988281 226.167969 M 416.238281 220.925781 L 416.238281 216.433594 L 416.988281 216.433594 L 416.988281 220.925781 M 416.238281 215.683594 L 416.238281 211.195312 L 416.988281 211.195312 L 416.988281 215.683594 M 416.238281 210.445312 L 416.238281 205.953125 L 416.988281 205.953125 L 416.988281 210.445312 M 416.238281 205.203125 L 416.238281 200.710938 L 416.988281 200.710938 L 416.988281 205.203125 M 416.238281 199.964844 L 416.238281 195.472656 L 416.988281 195.472656 L 416.988281 199.964844 M 416.238281 194.722656 L 416.238281 190.230469 L 416.988281 190.230469 L 416.988281 194.722656 M 416.238281 189.484375 L 416.238281 184.992188 L 416.988281 184.992188 L 416.988281 189.484375 M 416.238281 184.242188 L 416.238281 179.75 L 416.988281 179.75 L 416.988281 184.242188 M 416.238281 179 L 416.238281 174.507812 L 416.988281 174.507812 L 416.988281 179 M 416.238281 173.761719 L 416.238281 169.269531 L 416.988281 169.269531 L 416.988281 173.761719 M 416.238281 168.519531 L 416.238281 164.027344 L 416.988281 164.027344 L 416.988281 168.519531 M 416.238281 163.28125 L 416.238281 158.789062 L 416.988281 158.789062 L 416.988281 163.28125 M 416.238281 158.039062 L 416.238281 153.546875 L 416.988281 153.546875 L 416.988281 158.039062 M 416.238281 152.796875 L 416.238281 148.308594 L 416.988281 148.308594 L 416.988281 152.796875 M 416.238281 147.558594 L 416.238281 143.066406 L 416.988281 143.066406 L 416.988281 147.558594 M 416.238281 142.316406 L 416.238281 137.824219 L 416.988281 137.824219 L 416.988281 142.316406 M 416.238281 137.078125 L 416.238281 132.585938 L 416.988281 132.585938 L 416.988281 137.078125 M 416.238281 131.835938 L 416.238281 127.34375 L 416.988281 127.34375 L 416.988281 131.835938 M 416.238281 126.597656 L 416.238281 122.105469 L 416.988281 122.105469 L 416.988281 126.597656 M 416.238281 121.355469 L 416.238281 116.863281 L 416.988281 116.863281 L 416.988281 121.355469 M 416.238281 116.113281 L 416.238281 111.621094 L 416.988281 111.621094 L 416.988281 116.113281 M 416.238281 110.875 L 416.238281 106.382812 L 416.988281 106.382812 L 416.988281 110.875 M 416.238281 105.632812 L 416.238281 101.140625 L 416.988281 101.140625 L 416.988281 105.632812 M 416.238281 100.394531 L 416.238281 95.902344 L 416.988281 95.902344 L 416.988281 100.394531 M 416.238281 95.152344 L 416.238281 90.660156 L 416.988281 90.660156 L 416.988281 95.152344 M 416.238281 89.914062 L 416.238281 85.421875 L 416.988281 85.421875 L 416.988281 89.914062 M 416.238281 84.671875 L 416.238281 80.179688 L 416.988281 80.179688 L 416.988281 84.671875 M 416.238281 79.429688 L 416.238281 75.398438 L 416.988281 75.398438 L 416.988281 79.429688 " fill-opacity="1" fill-rule="nonzero"/><g fill="#153045" fill-opacity="1"><g transform="translate(545.886258, 224.412569)"><g><path d="M -11.136719 -3.613281 L -11.136719 -23.839844 L -19.144531 -23.839844 L -19.144531 -3.613281 Z M -11.136719 -3.613281 "/></g></g></g><g fill="#153045" fill-opacity="1"><g transform="translate(545.886258, 196.96463)"><g><path d="M 0 -10.898438 L 0 -22.695312 L -42.140625 -22.695312 L -42.140625 -13.785156 L -40.15625 -13.0625 C -36.902344 -11.921875 -35.640625 -9.8125 -35.640625 -5.78125 L -35.640625 -1.445312 L -25.285156 -1.445312 L -25.285156 -10.898438 Z M 0 -10.898438 "/></g></g></g><g fill="#153045" fill-opacity="1"><g transform="translate(545.886258, 169.817661)"><g><path d="M 0.902344 -19.265625 C 0.902344 -29.316406 -4.574219 -35.699219 -13.246094 -35.699219 C -21.433594 -35.699219 -27.03125 -29.859375 -27.03125 -21.433594 L -27.03125 -14.992188 L -32.085938 -15.472656 L -32.085938 -33.171875 L -42.140625 -33.171875 L -42.140625 -5.296875 L -18.121094 -2.828125 L -18.121094 -19.085938 C -18.121094 -22.214844 -16.433594 -24.261719 -13.785156 -24.261719 C -11.078125 -24.261719 -9.390625 -22.214844 -9.390625 -19.085938 C -9.390625 -16.015625 -11.015625 -14.027344 -13.785156 -13.90625 L -13.785156 -2.46875 C -4.574219 -2.828125 0.902344 -9.089844 0.902344 -19.265625 Z M 0.902344 -19.265625 "/></g></g></g><g fill="#153045" fill-opacity="1"><g transform="translate(545.886258, 131.956362)"><g><path d="M 0 -10.835938 L 0 -22.695312 L -42.140625 -47.800781 L -42.140625 -35.878906 Z M -33.171875 -1.988281 C -27.632812 -1.988281 -23.296875 -6.199219 -23.296875 -13.183594 C -23.296875 -20.226562 -27.632812 -24.382812 -33.171875 -24.382812 C -38.710938 -24.382812 -43.042969 -20.226562 -43.042969 -13.183594 C -43.042969 -6.199219 -38.710938 -1.988281 -33.171875 -1.988281 Z M -33.171875 -10.476562 C -34.675781 -10.476562 -35.941406 -11.5 -35.941406 -13.183594 C -35.941406 -14.929688 -34.675781 -15.953125 -33.171875 -15.953125 C -31.667969 -15.953125 -30.402344 -14.929688 -30.402344 -13.183594 C -30.402344 -11.5 -31.667969 -10.476562 -33.171875 -10.476562 Z M -8.96875 -34.195312 C -3.429688 -34.195312 0.902344 -38.410156 0.902344 -45.390625 C 0.902344 -52.375 -3.429688 -56.589844 -8.96875 -56.589844 C -14.507812 -56.589844 -18.84375 -52.375 -18.84375 -45.390625 C -18.84375 -38.410156 -14.507812 -34.195312 -8.96875 -34.195312 Z M -8.96875 -42.621094 C -10.476562 -42.621094 -11.738281 -43.707031 -11.738281 -45.390625 C -11.738281 -47.078125 -10.476562 -48.101562 -8.96875 -48.101562 C -7.464844 -48.101562 -6.199219 -47.078125 -6.199219 -45.390625 C -6.199219 -43.707031 -7.464844 -42.621094 -8.96875 -42.621094 Z M -8.96875 -42.621094 "/></g></g></g><g fill="#153045" fill-opacity="1"><g transform="translate(461.159102, 220.332171)"><g><path d="M 0.257812 -8.21875 C 0.257812 -11.609375 -1.796875 -14.363281 -4.90625 -15.203125 L -4.90625 -13.347656 C -2.8125 -12.628906 -1.496094 -10.652344 -1.496094 -8.277344 C -1.496094 -5.167969 -3.75 -2.953125 -6.980469 -2.953125 C -10.214844 -2.953125 -12.46875 -5.167969 -12.46875 -8.277344 C -12.46875 -10.59375 -11.230469 -12.488281 -9.214844 -13.207031 L -9.214844 -15.082031 C -12.289062 -14.164062 -14.222656 -11.511719 -14.222656 -8.21875 C -14.222656 -4.109375 -11.191406 -1.15625 -6.980469 -1.15625 C -2.773438 -1.15625 0.257812 -4.109375 0.257812 -8.21875 Z M 0.257812 -8.21875 "/></g></g></g><g fill="#153045" fill-opacity="1"><g transform="translate(461.159102, 198.929073)"><g><path d="M 0.257812 -8.378906 C 0.257812 -12.628906 -2.734375 -15.621094 -6.980469 -15.621094 C -11.230469 -15.621094 -14.222656 -12.628906 -14.222656 -8.378906 C -14.222656 -4.128906 -11.230469 -1.15625 -6.980469 -1.15625 C -2.734375 -1.15625 0.257812 -4.128906 0.257812 -8.378906 Z M -6.980469 -2.953125 C -10.234375 -2.953125 -12.46875 -5.167969 -12.46875 -8.378906 C -12.46875 -11.589844 -10.234375 -13.804688 -6.980469 -13.804688 C -3.730469 -13.804688 -1.496094 -11.589844 -1.496094 -8.378906 C -1.496094 -5.167969 -3.730469 -2.953125 -6.980469 -2.953125 Z M -6.980469 -2.953125 "/></g></g></g><g fill="#153045" fill-opacity="1"><g transform="translate(461.159102, 177.04731)"><g><path d="M 0.238281 -7.261719 C 0.238281 -10.632812 -1.976562 -12.667969 -5.6875 -12.667969 L -13.964844 -12.667969 L -13.964844 -10.914062 L -5.804688 -10.914062 C -2.953125 -10.914062 -1.476562 -9.65625 -1.476562 -7.261719 C -1.476562 -4.886719 -2.953125 -3.609375 -5.804688 -3.609375 L -13.964844 -3.609375 L -13.964844 -1.875 L -5.6875 -1.875 C -1.976562 -1.875 0.238281 -3.890625 0.238281 -7.261719 Z M 0.238281 -7.261719 "/></g></g></g><g fill="#153045" fill-opacity="1"><g transform="translate(461.159102, 157.379353)"><g><path d="M 0 -2.035156 L 0 -3.789062 L -4.589844 -3.789062 L -4.589844 -6.761719 C -4.589844 -9.914062 -6.402344 -11.949219 -9.277344 -11.949219 C -12.128906 -11.949219 -13.964844 -9.914062 -13.964844 -6.761719 L -13.964844 -2.035156 Z M -6.222656 -3.789062 L -12.289062 -3.789062 L -12.289062 -6.722656 C -12.289062 -8.976562 -11.25 -10.152344 -9.257812 -10.152344 C -7.261719 -10.152344 -6.222656 -8.976562 -6.222656 -6.722656 Z M -6.222656 -3.789062 "/></g></g></g><g fill="#153045" fill-opacity="1"><g transform="translate(461.159102, 139.50637)"><g><path d="M 0 -2.035156 L 0 -10.734375 L -1.636719 -10.734375 L -1.636719 -3.789062 L -6.304688 -3.789062 L -6.304688 -10.015625 L -7.921875 -10.015625 L -7.921875 -3.789062 L -12.328125 -3.789062 L -12.328125 -10.511719 L -13.964844 -10.511719 L -13.964844 -2.035156 Z M 0 -2.035156 "/></g></g></g><g fill="#153045" fill-opacity="1"><g transform="translate(461.159102, 122.351377)"><g/></g></g><g fill="#153045" fill-opacity="1"><g transform="translate(461.159102, 112.276556)"><g><path d="M 0 -2.035156 L 0 -6.863281 C 0 -11.152344 -2.851562 -14.023438 -6.980469 -14.023438 C -11.113281 -14.023438 -13.964844 -11.152344 -13.964844 -6.863281 L -13.964844 -2.035156 Z M -1.675781 -3.789062 L -12.289062 -3.789062 L -12.289062 -6.78125 C -12.289062 -10.035156 -10.152344 -12.230469 -6.980469 -12.230469 C -3.808594 -12.230469 -1.675781 -10.054688 -1.675781 -6.863281 Z M -1.675781 -3.789062 "/></g></g></g><g fill="#153045" fill-opacity="1"><g transform="translate(461.159102, 91.970385)"><g><path d="M 0.238281 -7.261719 C 0.238281 -10.632812 -1.976562 -12.667969 -5.6875 -12.667969 L -13.964844 -12.667969 L -13.964844 -10.914062 L -5.804688 -10.914062 C -2.953125 -10.914062 -1.476562 -9.65625 -1.476562 -7.261719 C -1.476562 -4.886719 -2.953125 -3.609375 -5.804688 -3.609375 L -13.964844 -3.609375 L -13.964844 -1.875 L -5.6875 -1.875 C -1.976562 -1.875 0.238281 -3.890625 0.238281 -7.261719 Z M 0.238281 -7.261719 "/></g></g></g><g fill="#153045" fill-opacity="1"><g transform="translate(482.676268, 239.267757)"><g><path d="M 0 -2.035156 L 0 -3.789062 L -10.691406 -3.789062 L -3.710938 -8.417969 L -3.710938 -9.855469 L -10.671875 -14.484375 L 0 -14.484375 L 0 -16.238281 L -13.964844 -16.238281 L -13.964844 -14.601562 L -5.6875 -9.15625 L -13.964844 -3.671875 L -13.964844 -2.035156 Z M 0 -2.035156 "/></g></g></g><g fill="#153045" fill-opacity="1"><g transform="translate(482.676268, 215.870242)"><g><path d="M 0.257812 -8.378906 C 0.257812 -12.628906 -2.734375 -15.621094 -6.980469 -15.621094 C -11.230469 -15.621094 -14.222656 -12.628906 -14.222656 -8.378906 C -14.222656 -4.128906 -11.230469 -1.15625 -6.980469 -1.15625 C -2.734375 -1.15625 0.257812 -4.128906 0.257812 -8.378906 Z M -6.980469 -2.953125 C -10.234375 -2.953125 -12.46875 -5.167969 -12.46875 -8.378906 C -12.46875 -11.589844 -10.234375 -13.804688 -6.980469 -13.804688 C -3.730469 -13.804688 -1.496094 -11.589844 -1.496094 -8.378906 C -1.496094 -5.167969 -3.730469 -2.953125 -6.980469 -2.953125 Z M -6.980469 -2.953125 "/></g></g></g><g fill="#153045" fill-opacity="1"><g transform="translate(482.676268, 193.98848)"><g><path d="M 0 -2.035156 L 0 -3.769531 L -10.933594 -3.769531 L 0 -11.492188 L 0 -13.125 L -13.964844 -13.125 L -13.964844 -11.410156 L -3.03125 -11.410156 L -13.964844 -3.691406 L -13.964844 -2.035156 Z M 0 -2.035156 "/></g></g></g><g fill="#153045" fill-opacity="1"><g transform="translate(482.676268, 173.70225)"><g><path d="M 0 -2.035156 L 0 -6.863281 C 0 -11.152344 -2.851562 -14.023438 -6.980469 -14.023438 C -11.113281 -14.023438 -13.964844 -11.152344 -13.964844 -6.863281 L -13.964844 -2.035156 Z M -1.675781 -3.789062 L -12.289062 -3.789062 L -12.289062 -6.78125 C -12.289062 -10.035156 -10.152344 -12.230469 -6.980469 -12.230469 C -3.808594 -12.230469 -1.675781 -10.054688 -1.675781 -6.863281 Z M -1.675781 -3.789062 "/></g></g></g><g fill="#153045" fill-opacity="1"><g transform="translate(482.676268, 153.396079)"><g><path d="M 0 -2.035156 L 0 -10.734375 L -1.636719 -10.734375 L -1.636719 -3.789062 L -6.304688 -3.789062 L -6.304688 -10.015625 L -7.921875 -10.015625 L -7.921875 -3.789062 L -12.328125 -3.789062 L -12.328125 -10.511719 L -13.964844 -10.511719 L -13.964844 -2.035156 Z M 0 -2.035156 "/></g></g></g><g fill="#153045" fill-opacity="1"><g transform="translate(482.676268, 136.241086)"><g/></g></g><g fill="#153045" fill-opacity="1"><g transform="translate(482.676268, 126.166265)"><g><path d="M 0 -1.4375 L 0 -11.152344 L -1.636719 -11.152344 L -1.636719 -4.308594 L -5.304688 -8.339844 C -6.902344 -10.074219 -8.457031 -10.871094 -10.035156 -10.871094 C -12.488281 -10.871094 -14.222656 -8.917969 -14.222656 -6.246094 C -14.222656 -3.511719 -12.410156 -1.675781 -9.617188 -1.597656 L -9.617188 -3.230469 C -11.550781 -3.292969 -12.6875 -4.488281 -12.6875 -6.265625 C -12.6875 -7.980469 -11.628906 -9.175781 -10.035156 -9.175781 C -8.878906 -9.175781 -7.859375 -8.558594 -6.625 -7.222656 L -1.316406 -1.4375 Z M 0 -1.4375 "/></g></g></g><g fill="#153045" fill-opacity="1"><g transform="translate(482.676268, 108.253391)"><g><path d="M 0.257812 -6.980469 C 0.257812 -10.472656 -2.511719 -12.609375 -6.980469 -12.609375 C -11.449219 -12.609375 -14.222656 -10.472656 -14.222656 -6.980469 C -14.222656 -3.511719 -11.449219 -1.335938 -6.980469 -1.335938 C -2.511719 -1.335938 0.257812 -3.511719 0.257812 -6.980469 Z M -6.980469 -3.070312 C -10.414062 -3.070312 -12.527344 -4.570312 -12.527344 -6.980469 C -12.527344 -9.394531 -10.414062 -10.871094 -6.980469 -10.871094 C -3.550781 -10.871094 -1.4375 -9.394531 -1.4375 -6.980469 C -1.4375 -4.570312 -3.550781 -3.070312 -6.980469 -3.070312 Z M -6.980469 -3.070312 "/></g></g></g><g fill="#153045" fill-opacity="1"><g transform="translate(482.676268, 89.183755)"><g><path d="M 0 -1.4375 L 0 -11.152344 L -1.636719 -11.152344 L -1.636719 -4.308594 L -5.304688 -8.339844 C -6.902344 -10.074219 -8.457031 -10.871094 -10.035156 -10.871094 C -12.488281 -10.871094 -14.222656 -8.917969 -14.222656 -6.246094 C -14.222656 -3.511719 -12.410156 -1.675781 -9.617188 -1.597656 L -9.617188 -3.230469 C -11.550781 -3.292969 -12.6875 -4.488281 -12.6875 -6.265625 C -12.6875 -7.980469 -11.628906 -9.175781 -10.035156 -9.175781 C -8.878906 -9.175781 -7.859375 -8.558594 -6.625 -7.222656 L -1.316406 -1.4375 Z M 0 -1.4375 "/></g></g></g><g fill="#153045" fill-opacity="1"><g transform="translate(482.676268, 71.270881)"><g><path d="M 0 -1.4375 L 0 -11.152344 L -1.636719 -11.152344 L -1.636719 -4.308594 L -5.304688 -8.339844 C -6.902344 -10.074219 -8.457031 -10.871094 -10.035156 -10.871094 C -12.488281 -10.871094 -14.222656 -8.917969 -14.222656 -6.246094 C -14.222656 -3.511719 -12.410156 -1.675781 -9.617188 -1.597656 L -9.617188 -3.230469 C -11.550781 -3.292969 -12.6875 -4.488281 -12.6875 -6.265625 C -12.6875 -7.980469 -11.628906 -9.175781 -10.035156 -9.175781 C -8.878906 -9.175781 -7.859375 -8.558594 -6.625 -7.222656 L -1.316406 -1.4375 Z M 0 -1.4375 "/></g></g></g><g fill="#153045" fill-opacity="1"><g transform="translate(152.727704, 75.385968)"><g><path d="M 6.605469 0.207031 C 9.328125 0.207031 11.542969 -1.441406 12.214844 -3.945312 L 10.722656 -3.945312 C 10.148438 -2.261719 8.558594 -1.203125 6.652344 -1.203125 C 4.152344 -1.203125 2.371094 -3.015625 2.371094 -5.609375 C 2.371094 -8.207031 4.152344 -10.019531 6.652344 -10.019531 C 8.511719 -10.019531 10.035156 -9.023438 10.613281 -7.40625 L 12.117188 -7.40625 C 11.382812 -9.875 9.25 -11.429688 6.605469 -11.429688 C 3.300781 -11.429688 0.929688 -8.992188 0.929688 -5.609375 C 0.929688 -2.226562 3.300781 0.207031 6.605469 0.207031 Z M 6.605469 0.207031 "/></g></g></g><g fill="#153045" fill-opacity="1"><g transform="translate(165.80809, 75.385968)"><g><path d="M 8.992188 0 L 10.402344 0 L 10.402344 -11.222656 L 8.992188 -11.222656 L 8.992188 -6.394531 L 3.046875 -6.394531 L 3.046875 -11.222656 L 1.636719 -11.222656 L 1.636719 0 L 3.046875 0 L 3.046875 -5.050781 L 8.992188 -5.050781 Z M 8.992188 0 "/></g></g></g><g fill="#153045" fill-opacity="1"><g transform="translate(177.846534, 75.385968)"><g><path d="M 1.636719 0 L 8.625 0 L 8.625 -1.316406 L 3.046875 -1.316406 L 3.046875 -5.066406 L 8.046875 -5.066406 L 8.046875 -6.363281 L 3.046875 -6.363281 L 3.046875 -9.90625 L 8.449219 -9.90625 L 8.449219 -11.222656 L 1.636719 -11.222656 Z M 1.636719 0 "/></g></g></g><g fill="#153045" fill-opacity="1"><g transform="translate(187.512554, 75.385968)"><g><path d="M 0.847656 0 L 8.847656 0 L 8.847656 -1.347656 L 2.726562 -1.347656 L 8.6875 -10.179688 L 8.6875 -11.222656 L 1.011719 -11.222656 L 1.011719 -9.875 L 6.8125 -9.875 L 0.847656 -1.042969 Z M 0.847656 0 "/></g></g></g><g fill="#153045" fill-opacity="1"><g transform="translate(197.194603, 75.385968)"><g/></g></g><g fill="#153045" fill-opacity="1"><g transform="translate(201.170019, 75.385968)"><g><path d="M 0.273438 0 L 1.78125 0 L 2.804688 -2.546875 L 8.273438 -2.546875 L 9.328125 0 L 10.820312 0 L 6.203125 -11.222656 L 4.890625 -11.222656 Z M 3.351562 -3.863281 L 5.546875 -9.25 L 7.742188 -3.863281 Z M 3.351562 -3.863281 "/></g></g></g><g fill="#153045" fill-opacity="1"><g transform="translate(212.262697, 75.385968)"><g><path d="M 0.847656 0 L 8.847656 0 L 8.847656 -1.347656 L 2.726562 -1.347656 L 8.6875 -10.179688 L 8.6875 -11.222656 L 1.011719 -11.222656 L 1.011719 -9.875 L 6.8125 -9.875 L 0.847656 -1.042969 Z M 0.847656 0 "/></g></g></g><g fill="#153045" fill-opacity="1"><g transform="translate(221.944746, 75.385968)"><g><path d="M 5.835938 0.191406 C 8.542969 0.191406 10.179688 -1.585938 10.179688 -4.570312 L 10.179688 -11.222656 L 8.769531 -11.222656 L 8.769531 -4.664062 C 8.769531 -2.371094 7.757812 -1.1875 5.835938 -1.1875 C 3.925781 -1.1875 2.902344 -2.371094 2.902344 -4.664062 L 2.902344 -11.222656 L 1.507812 -11.222656 L 1.507812 -4.570312 C 1.507812 -1.585938 3.125 0.191406 5.835938 0.191406 Z M 5.835938 0.191406 "/></g></g></g><g fill="#153045" fill-opacity="1"><g transform="translate(233.630533, 75.385968)"><g><path d="M 1.636719 0 L 3.046875 0 L 3.046875 -4.023438 L 5.515625 -4.023438 L 8.253906 0 L 9.953125 0 L 7.132812 -4.167969 C 8.769531 -4.570312 9.777344 -5.804688 9.777344 -7.613281 C 9.777344 -9.84375 8.238281 -11.222656 5.914062 -11.222656 L 1.636719 -11.222656 Z M 3.046875 -5.371094 L 3.046875 -9.875 L 5.753906 -9.875 C 7.390625 -9.875 8.335938 -9.042969 8.335938 -7.613281 C 8.335938 -6.1875 7.390625 -5.371094 5.753906 -5.371094 Z M 3.046875 -5.371094 "/></g></g></g><g fill="#153045" fill-opacity="1"><g transform="translate(244.546888, 75.385968)"><g><path d="M 0.273438 0 L 1.78125 0 L 2.804688 -2.546875 L 8.273438 -2.546875 L 9.328125 0 L 10.820312 0 L 6.203125 -11.222656 L 4.890625 -11.222656 Z M 3.351562 -3.863281 L 5.546875 -9.25 L 7.742188 -3.863281 Z M 3.351562 -3.863281 "/></g></g></g><g fill="#153045" fill-opacity="1"><g transform="translate(150.122109, 97.671604)"><g><path d="M 1.636719 0 L 3.046875 0 L 3.046875 -4.023438 L 5.515625 -4.023438 L 8.253906 0 L 9.953125 0 L 7.132812 -4.167969 C 8.769531 -4.570312 9.777344 -5.804688 9.777344 -7.613281 C 9.777344 -9.84375 8.238281 -11.222656 5.914062 -11.222656 L 1.636719 -11.222656 Z M 3.046875 -5.371094 L 3.046875 -9.875 L 5.753906 -9.875 C 7.390625 -9.875 8.335938 -9.042969 8.335938 -7.613281 C 8.335938 -6.1875 7.390625 -5.371094 5.753906 -5.371094 Z M 3.046875 -5.371094 "/></g></g></g><g fill="#153045" fill-opacity="1"><g transform="translate(161.038464, 97.671604)"><g><path d="M 1.636719 0 L 8.625 0 L 8.625 -1.316406 L 3.046875 -1.316406 L 3.046875 -5.066406 L 8.046875 -5.066406 L 8.046875 -6.363281 L 3.046875 -6.363281 L 3.046875 -9.90625 L 8.449219 -9.90625 L 8.449219 -11.222656 L 1.636719 -11.222656 Z M 1.636719 0 "/></g></g></g><g fill="#153045" fill-opacity="1"><g transform="translate(170.704484, 97.671604)"><g><path d="M 5.371094 0.207031 C 7.824219 0.207031 9.410156 -0.992188 9.410156 -2.949219 C 9.410156 -4.601562 8.304688 -5.59375 5.433594 -6.300781 C 3.253906 -6.828125 2.53125 -7.40625 2.53125 -8.335938 C 2.53125 -9.410156 3.496094 -10.082031 5.097656 -10.082031 C 6.75 -10.082031 7.773438 -9.25 7.808594 -7.902344 L 9.203125 -7.902344 C 9.183594 -10.082031 7.613281 -11.429688 5.097656 -11.429688 C 2.644531 -11.429688 1.089844 -10.226562 1.089844 -8.335938 C 1.089844 -6.605469 2.324219 -5.644531 5.082031 -4.984375 C 7.101562 -4.503906 7.949219 -3.945312 7.949219 -2.902344 C 7.949219 -1.796875 6.957031 -1.136719 5.371094 -1.136719 C 3.621094 -1.136719 2.40625 -2.003906 2.371094 -3.445312 L 0.960938 -3.445312 C 0.976562 -1.25 2.691406 0.207031 5.371094 0.207031 Z M 5.371094 0.207031 "/></g></g></g><g fill="#153045" fill-opacity="1"><g transform="translate(181.075818, 97.671604)"><g><path d="M 4.34375 0 L 5.753906 0 L 5.753906 -9.875 L 9.539062 -9.875 L 9.539062 -11.222656 L 0.546875 -11.222656 L 0.546875 -9.875 L 4.34375 -9.875 Z M 4.34375 0 "/></g></g></g><g fill="#153045" fill-opacity="1"><g transform="translate(191.174653, 97.671604)"><g><path d="M 0.273438 0 L 1.78125 0 L 2.804688 -2.546875 L 8.273438 -2.546875 L 9.328125 0 L 10.820312 0 L 6.203125 -11.222656 L 4.890625 -11.222656 Z M 3.351562 -3.863281 L 5.546875 -9.25 L 7.742188 -3.863281 Z M 3.351562 -3.863281 "/></g></g></g><g fill="#153045" fill-opacity="1"><g transform="translate(202.267331, 97.671604)"><g><path d="M 5.835938 0.191406 C 8.542969 0.191406 10.179688 -1.585938 10.179688 -4.570312 L 10.179688 -11.222656 L 8.769531 -11.222656 L 8.769531 -4.664062 C 8.769531 -2.371094 7.757812 -1.1875 5.835938 -1.1875 C 3.925781 -1.1875 2.902344 -2.371094 2.902344 -4.664062 L 2.902344 -11.222656 L 1.507812 -11.222656 L 1.507812 -4.570312 C 1.507812 -1.585938 3.125 0.191406 5.835938 0.191406 Z M 5.835938 0.191406 "/></g></g></g><g fill="#153045" fill-opacity="1"><g transform="translate(213.953118, 97.671604)"><g><path d="M 1.636719 0 L 3.046875 0 L 3.046875 -4.023438 L 5.515625 -4.023438 L 8.253906 0 L 9.953125 0 L 7.132812 -4.167969 C 8.769531 -4.570312 9.777344 -5.804688 9.777344 -7.613281 C 9.777344 -9.84375 8.238281 -11.222656 5.914062 -11.222656 L 1.636719 -11.222656 Z M 3.046875 -5.371094 L 3.046875 -9.875 L 5.753906 -9.875 C 7.390625 -9.875 8.335938 -9.042969 8.335938 -7.613281 C 8.335938 -6.1875 7.390625 -5.371094 5.753906 -5.371094 Z M 3.046875 -5.371094 "/></g></g></g><g fill="#153045" fill-opacity="1"><g transform="translate(224.869473, 97.671604)"><g><path d="M 0.273438 0 L 1.78125 0 L 2.804688 -2.546875 L 8.273438 -2.546875 L 9.328125 0 L 10.820312 0 L 6.203125 -11.222656 L 4.890625 -11.222656 Z M 3.351562 -3.863281 L 5.546875 -9.25 L 7.742188 -3.863281 Z M 3.351562 -3.863281 "/></g></g></g><g fill="#153045" fill-opacity="1"><g transform="translate(235.962151, 97.671604)"><g><path d="M 1.636719 0 L 3.03125 0 L 3.03125 -8.785156 L 9.234375 0 L 10.546875 0 L 10.546875 -11.222656 L 9.167969 -11.222656 L 9.167969 -2.4375 L 2.964844 -11.222656 L 1.636719 -11.222656 Z M 1.636719 0 "/></g></g></g><g fill="#153045" fill-opacity="1"><g transform="translate(248.14487, 97.671604)"><g><path d="M 4.34375 0 L 5.753906 0 L 5.753906 -9.875 L 9.539062 -9.875 L 9.539062 -11.222656 L 0.546875 -11.222656 L 0.546875 -9.875 L 4.34375 -9.875 Z M 4.34375 0 "/></g></g></g><path stroke-linecap="butt" transform="matrix(0.750238, 0, 0, 0.75, 95.212569, 207.865413)" fill="none" stroke-linejoin="miter" d="M -0.00217468 0.502365 L 295.919708 0.502365 " stroke="#153045" stroke-width="1" stroke-opacity="1" stroke-miterlimit="4"/><g fill="#153045" fill-opacity="1"><g transform="translate(90.796246, 183.721189)"><g><path d="M 1.449219 0 L 2.703125 0 L 2.703125 -3.273438 L 4.820312 -3.273438 C 7.070312 -3.273438 8.519531 -4.566406 8.519531 -6.613281 C 8.519531 -8.648438 7.070312 -9.957031 4.820312 -9.957031 L 1.449219 -9.957031 Z M 2.703125 -4.4375 L 2.703125 -8.761719 L 4.792969 -8.761719 C 6.402344 -8.761719 7.238281 -8.023438 7.238281 -6.601562 C 7.238281 -5.175781 6.402344 -4.4375 4.792969 -4.4375 Z M 2.703125 -4.4375 "/></g></g></g><g fill="#153045" fill-opacity="1"><g transform="translate(99.880765, 183.721189)"><g><path d="M 1.449219 0 L 7.652344 0 L 7.652344 -1.167969 L 2.703125 -1.167969 L 2.703125 -4.496094 L 7.140625 -4.496094 L 7.140625 -5.648438 L 2.703125 -5.648438 L 2.703125 -8.789062 L 7.496094 -8.789062 L 7.496094 -9.957031 L 1.449219 -9.957031 Z M 1.449219 0 "/></g></g></g><g fill="#153045" fill-opacity="1"><g transform="translate(108.453471, 183.721189)"><g><path d="M 1.449219 0 L 2.6875 0 L 2.6875 -7.796875 L 8.191406 0 L 9.359375 0 L 9.359375 -9.957031 L 8.136719 -9.957031 L 8.136719 -2.160156 L 2.632812 -9.957031 L 1.449219 -9.957031 Z M 1.449219 0 "/></g></g></g><g fill="#153045" fill-opacity="1"><g transform="translate(119.258219, 183.721189)"><g><path d="M 1.449219 0 L 4.894531 0 C 7.953125 0 10 -2.035156 10 -4.980469 C 10 -7.921875 7.953125 -9.957031 4.894531 -9.957031 L 1.449219 -9.957031 Z M 2.703125 -1.195312 L 2.703125 -8.761719 L 4.835938 -8.761719 C 7.15625 -8.761719 8.71875 -7.238281 8.71875 -4.980469 C 8.71875 -2.71875 7.167969 -1.195312 4.894531 -1.195312 Z M 2.703125 -1.195312 "/></g></g></g><g fill="#153045" fill-opacity="1"><g transform="translate(130.077179, 183.721189)"><g><path d="M 0.242188 0 L 1.578125 0 L 2.488281 -2.261719 L 7.339844 -2.261719 L 8.277344 0 L 9.601562 0 L 5.503906 -9.957031 L 4.339844 -9.957031 Z M 2.972656 -3.429688 L 4.921875 -8.207031 L 6.871094 -3.429688 Z M 2.972656 -3.429688 "/></g></g></g><g fill="#153045" fill-opacity="1"><g transform="translate(139.915182, 183.721189)"><g><path d="M 1.449219 0 L 2.6875 0 L 2.6875 -7.796875 L 8.191406 0 L 9.359375 0 L 9.359375 -9.957031 L 8.136719 -9.957031 L 8.136719 -2.160156 L 2.632812 -9.957031 L 1.449219 -9.957031 Z M 1.449219 0 "/></g></g></g><g fill="#153045" fill-opacity="1"><g transform="translate(150.71993, 183.721189)"><g><path d="M 3.855469 0 L 5.105469 0 L 5.105469 -8.761719 L 8.464844 -8.761719 L 8.464844 -9.957031 L 0.484375 -9.957031 L 0.484375 -8.761719 L 3.855469 -8.761719 Z M 3.855469 0 "/></g></g></g><g fill="#153045" fill-opacity="1"><g transform="translate(164.672504, 183.938615)"><g><path d="M 1.050781 0 L 7.992188 0 L 7.992188 -2.660156 L 3.925781 -2.660156 L 3.925781 -9.957031 L 1.050781 -9.957031 Z M 1.050781 0 "/></g></g></g><g fill="#153045" fill-opacity="1"><g transform="translate(173.017751, 183.938615)"><g><path d="M 0.0703125 0 L 3.113281 0 L 3.65625 -1.410156 L 7.054688 -1.410156 L 7.597656 0 L 10.652344 0 L 6.785156 -9.957031 L 3.941406 -9.957031 Z M 4.253906 -3.511719 L 5.363281 -6.601562 L 6.472656 -3.511719 Z M 4.253906 -3.511719 "/></g></g></g><g fill="#153045" fill-opacity="1"><g transform="translate(183.737192, 183.938615)"><g/></g></g><g fill="#153045" fill-opacity="1"><g transform="translate(187.02126, 183.938615)"><g><path d="M 5.703125 0.214844 C 8.449219 0.214844 10.527344 -1.449219 10.953125 -3.984375 L 8.035156 -3.984375 C 7.679688 -3.042969 6.84375 -2.445312 5.761719 -2.445312 C 4.367188 -2.445312 3.398438 -3.484375 3.398438 -4.980469 C 3.398438 -6.484375 4.382812 -7.511719 5.789062 -7.511719 C 6.828125 -7.511719 7.695312 -6.925781 7.992188 -6.03125 L 10.894531 -6.03125 C 10.382812 -8.550781 8.335938 -10.171875 5.675781 -10.171875 C 2.601562 -10.171875 0.484375 -8.050781 0.484375 -4.980469 C 0.484375 -1.90625 2.601562 0.214844 5.703125 0.214844 Z M 5.703125 0.214844 "/></g></g></g><g fill="#153045" fill-opacity="1"><g transform="translate(198.423104, 183.938615)"><g><path d="M 5.902344 0.214844 C 9.074219 0.214844 11.324219 -1.933594 11.324219 -4.980469 C 11.324219 -8.023438 9.074219 -10.171875 5.902344 -10.171875 C 2.730469 -10.171875 0.484375 -8.023438 0.484375 -4.980469 C 0.484375 -1.933594 2.730469 0.214844 5.902344 0.214844 Z M 3.398438 -4.980469 C 3.398438 -6.472656 4.4375 -7.511719 5.902344 -7.511719 C 7.382812 -7.511719 8.40625 -6.472656 8.40625 -4.980469 C 8.40625 -3.484375 7.382812 -2.445312 5.902344 -2.445312 C 4.4375 -2.445312 3.398438 -3.484375 3.398438 -4.980469 Z M 3.398438 -4.980469 "/></g></g></g><g fill="#153045" fill-opacity="1"><g transform="translate(210.237243, 183.938615)"><g><path d="M 5.335938 0.214844 C 8.023438 0.214844 9.6875 -1.421875 9.6875 -4.097656 L 9.6875 -9.957031 L 6.828125 -9.957031 L 6.828125 -4.28125 C 6.828125 -3.101562 6.328125 -2.476562 5.335938 -2.476562 C 4.339844 -2.476562 3.839844 -3.101562 3.839844 -4.28125 L 3.839844 -9.957031 L 0.96875 -9.957031 L 0.96875 -4.097656 C 0.96875 -1.421875 2.644531 0.214844 5.335938 0.214844 Z M 5.335938 0.214844 "/></g></g></g><g fill="#153045" fill-opacity="1"><g transform="translate(220.899813, 183.938615)"><g><path d="M 1.050781 0 L 3.925781 0 L 3.925781 -2.460938 L 5.25 -2.460938 C 7.78125 -2.460938 9.386719 -3.925781 9.386719 -6.214844 C 9.386719 -8.507812 7.78125 -9.957031 5.25 -9.957031 L 1.050781 -9.957031 Z M 3.898438 -4.863281 L 3.898438 -7.539062 L 4.980469 -7.539062 C 5.929688 -7.539062 6.484375 -7.027344 6.484375 -6.203125 C 6.484375 -5.363281 5.929688 -4.863281 4.980469 -4.863281 Z M 3.898438 -4.863281 "/></g></g></g><g fill="#153045" fill-opacity="1"><g transform="translate(230.609864, 183.938615)"><g><path d="M 1.050781 0 L 8.035156 0 L 8.035156 -2.347656 L 3.898438 -2.347656 L 3.898438 -3.882812 L 7.496094 -3.882812 L 7.496094 -6.1875 L 3.898438 -6.1875 L 3.898438 -7.636719 L 7.878906 -7.636719 L 7.878906 -9.957031 L 1.050781 -9.957031 Z M 1.050781 0 "/></g></g></g><g fill="#153045" fill-opacity="1"><g transform="translate(239.282088, 183.938615)"><g/></g></g><g fill="#153045" fill-opacity="1"><g transform="translate(242.566156, 183.938615)"><g><path d="M 1.050781 0 L 5.277344 0 C 8.492188 0 10.625 -1.976562 10.625 -4.980469 C 10.625 -7.964844 8.492188 -9.957031 5.277344 -9.957031 L 1.050781 -9.957031 Z M 3.925781 -2.574219 L 3.925781 -7.382812 L 5.191406 -7.382812 C 6.714844 -7.382812 7.695312 -6.445312 7.695312 -4.980469 C 7.695312 -3.511719 6.714844 -2.574219 5.191406 -2.574219 Z M 3.925781 -2.574219 "/></g></g></g><g fill="#153045" fill-opacity="1"><g transform="translate(253.669446, 183.938615)"><g><path d="M 5.335938 0.214844 C 8.023438 0.214844 9.6875 -1.421875 9.6875 -4.097656 L 9.6875 -9.957031 L 6.828125 -9.957031 L 6.828125 -4.28125 C 6.828125 -3.101562 6.328125 -2.476562 5.335938 -2.476562 C 4.339844 -2.476562 3.839844 -3.101562 3.839844 -4.28125 L 3.839844 -9.957031 L 0.96875 -9.957031 L 0.96875 -4.097656 C 0.96875 -1.421875 2.644531 0.214844 5.335938 0.214844 Z M 5.335938 0.214844 "/></g></g></g><g fill="#153045" fill-opacity="1"><g transform="translate(264.332017, 183.938615)"><g/></g></g><g fill="#153045" fill-opacity="1"><g transform="translate(267.616085, 183.938615)"><g><path d="M 1.050781 0 L 3.898438 0 L 3.898438 -5.050781 L 5.816406 -2.359375 L 7.679688 -2.359375 L 9.585938 -5.035156 L 9.585938 0 L 12.433594 0 L 12.433594 -9.957031 L 10.097656 -9.957031 L 6.742188 -5.21875 L 3.398438 -9.957031 L 1.050781 -9.957031 Z M 1.050781 0 "/></g></g></g><g fill="#153045" fill-opacity="1"><g transform="translate(281.093581, 183.938615)"><g><path d="M 5.902344 0.214844 C 9.074219 0.214844 11.324219 -1.933594 11.324219 -4.980469 C 11.324219 -8.023438 9.074219 -10.171875 5.902344 -10.171875 C 2.730469 -10.171875 0.484375 -8.023438 0.484375 -4.980469 C 0.484375 -1.933594 2.730469 0.214844 5.902344 0.214844 Z M 3.398438 -4.980469 C 3.398438 -6.472656 4.4375 -7.511719 5.902344 -7.511719 C 7.382812 -7.511719 8.40625 -6.472656 8.40625 -4.980469 C 8.40625 -3.484375 7.382812 -2.445312 5.902344 -2.445312 C 4.4375 -2.445312 3.398438 -3.484375 3.398438 -4.980469 Z M 3.398438 -4.980469 "/></g></g></g><g fill="#153045" fill-opacity="1"><g transform="translate(292.90772, 183.938615)"><g><path d="M 1.050781 0 L 3.898438 0 L 3.898438 -5.078125 L 7.679688 0 L 10.015625 0 L 10.015625 -9.957031 L 7.183594 -9.957031 L 7.183594 -4.90625 L 3.398438 -9.957031 L 1.050781 -9.957031 Z M 1.050781 0 "/></g></g></g><g fill="#153045" fill-opacity="1"><g transform="translate(303.982586, 183.938615)"><g><path d="M 1.050781 0 L 5.277344 0 C 8.492188 0 10.625 -1.976562 10.625 -4.980469 C 10.625 -7.964844 8.492188 -9.957031 5.277344 -9.957031 L 1.050781 -9.957031 Z M 3.925781 -2.574219 L 3.925781 -7.382812 L 5.191406 -7.382812 C 6.714844 -7.382812 7.695312 -6.445312 7.695312 -4.980469 C 7.695312 -3.511719 6.714844 -2.574219 5.191406 -2.574219 Z M 3.925781 -2.574219 "/></g></g></g><g fill="#153045" fill-opacity="1"><g transform="translate(315.085875, 183.938615)"><g><path d="M 1.050781 0 L 8.035156 0 L 8.035156 -2.347656 L 3.898438 -2.347656 L 3.898438 -3.882812 L 7.496094 -3.882812 L 7.496094 -6.1875 L 3.898438 -6.1875 L 3.898438 -7.636719 L 7.878906 -7.636719 L 7.878906 -9.957031 L 1.050781 -9.957031 Z M 1.050781 0 "/></g></g></g><g fill="#153045" fill-opacity="1"><g transform="translate(95.023109, 223.389926)"><g><path d="M 3.945312 0.125 C 5.574219 0.125 6.894531 -0.863281 7.296875 -2.355469 L 6.40625 -2.355469 C 6.0625 -1.351562 5.113281 -0.71875 3.972656 -0.71875 C 2.480469 -0.71875 1.417969 -1.800781 1.417969 -3.351562 C 1.417969 -4.902344 2.480469 -5.984375 3.972656 -5.984375 C 5.085938 -5.984375 5.992188 -5.390625 6.339844 -4.421875 L 7.238281 -4.421875 C 6.796875 -5.898438 5.523438 -6.828125 3.945312 -6.828125 C 1.972656 -6.828125 0.554688 -5.371094 0.554688 -3.351562 C 0.554688 -1.332031 1.972656 0.125 3.945312 0.125 Z M 3.945312 0.125 "/></g></g></g><g fill="#153045" fill-opacity="1"><g transform="translate(102.832082, 223.389926)"><g><path d="M 4.023438 0.125 C 6.0625 0.125 7.496094 -1.3125 7.496094 -3.351562 C 7.496094 -5.390625 6.0625 -6.828125 4.023438 -6.828125 C 1.980469 -6.828125 0.554688 -5.390625 0.554688 -3.351562 C 0.554688 -1.3125 1.980469 0.125 4.023438 0.125 Z M 1.417969 -3.351562 C 1.417969 -4.910156 2.480469 -5.984375 4.023438 -5.984375 C 5.5625 -5.984375 6.625 -4.910156 6.625 -3.351562 C 6.625 -1.789062 5.5625 -0.71875 4.023438 -0.71875 C 2.480469 -0.71875 1.417969 -1.789062 1.417969 -3.351562 Z M 1.417969 -3.351562 "/></g></g></g><g fill="#153045" fill-opacity="1"><g transform="translate(110.870731, 223.389926)"><g><path d="M 0.976562 0 L 1.820312 0 L 1.820312 -5.132812 L 4.039062 -1.78125 L 4.730469 -1.78125 L 6.953125 -5.121094 L 6.953125 0 L 7.792969 0 L 7.792969 -6.703125 L 7.007812 -6.703125 L 4.394531 -2.730469 L 1.761719 -6.703125 L 0.976562 -6.703125 Z M 0.976562 0 "/></g></g></g><g fill="#153045" fill-opacity="1"><g transform="translate(119.636692, 223.389926)"><g><path d="M 0.976562 0 L 1.820312 0 L 1.820312 -5.132812 L 4.039062 -1.78125 L 4.730469 -1.78125 L 6.953125 -5.121094 L 6.953125 0 L 7.792969 0 L 7.792969 -6.703125 L 7.007812 -6.703125 L 4.394531 -2.730469 L 1.761719 -6.703125 L 0.976562 -6.703125 Z M 0.976562 0 "/></g></g></g><g fill="#153045" fill-opacity="1"><g transform="translate(128.402653, 223.389926)"><g><path d="M 0.164062 0 L 1.0625 0 L 1.675781 -1.523438 L 4.941406 -1.523438 L 5.574219 0 L 6.464844 0 L 3.707031 -6.703125 L 2.921875 -6.703125 Z M 2 -2.308594 L 3.3125 -5.523438 L 4.625 -2.308594 Z M 2 -2.308594 "/></g></g></g><g fill="#153045" fill-opacity="1"><g transform="translate(135.024975, 223.389926)"><g><path d="M 0.976562 0 L 1.808594 0 L 1.808594 -5.246094 L 5.515625 0 L 6.300781 0 L 6.300781 -6.703125 L 5.476562 -6.703125 L 5.476562 -1.457031 L 1.769531 -6.703125 L 0.976562 -6.703125 Z M 0.976562 0 "/></g></g></g><g fill="#153045" fill-opacity="1"><g transform="translate(142.298038, 223.389926)"><g><path d="M 0.976562 0 L 3.292969 0 C 5.351562 0 6.730469 -1.371094 6.730469 -3.351562 C 6.730469 -5.332031 5.351562 -6.703125 3.292969 -6.703125 L 0.976562 -6.703125 Z M 1.820312 -0.804688 L 1.820312 -5.898438 L 3.253906 -5.898438 C 4.816406 -5.898438 5.871094 -4.875 5.871094 -3.351562 C 5.871094 -1.828125 4.824219 -0.804688 3.292969 -0.804688 Z M 1.820312 -0.804688 "/></g></g></g><g fill="#153045" fill-opacity="1"><g transform="translate(149.58067, 223.389926)"><g><path d="M 0.976562 0 L 5.152344 0 L 5.152344 -0.785156 L 1.820312 -0.785156 L 1.820312 -3.027344 L 4.808594 -3.027344 L 4.808594 -3.800781 L 1.820312 -3.800781 L 1.820312 -5.917969 L 5.046875 -5.917969 L 5.046875 -6.703125 L 0.976562 -6.703125 Z M 0.976562 0 "/></g></g></g><g fill="#153045" fill-opacity="1"><g transform="translate(155.351267, 223.389926)"><g><path d="M 0.507812 0 L 5.285156 0 L 5.285156 -0.804688 L 1.628906 -0.804688 L 5.191406 -6.082031 L 5.191406 -6.703125 L 0.601562 -6.703125 L 0.601562 -5.898438 L 4.070312 -5.898438 L 0.507812 -0.621094 Z M 0.507812 0 "/></g></g></g><g fill="#153045" fill-opacity="1"><g transform="translate(161.131444, 223.389926)"><g/></g></g><g fill="#153045" fill-opacity="1"><g transform="translate(163.504759, 223.389926)"><g><path d="M 0.976562 0 L 5.152344 0 L 5.152344 -0.785156 L 1.820312 -0.785156 L 1.820312 -3.027344 L 4.808594 -3.027344 L 4.808594 -3.800781 L 1.820312 -3.800781 L 1.820312 -5.917969 L 5.046875 -5.917969 L 5.046875 -6.703125 L 0.976562 -6.703125 Z M 0.976562 0 "/></g></g></g><g fill="#153045" fill-opacity="1"><g transform="translate(169.275357, 223.389926)"><g><path d="M 0.976562 0 L 1.808594 0 L 1.808594 -5.246094 L 5.515625 0 L 6.300781 0 L 6.300781 -6.703125 L 5.476562 -6.703125 L 5.476562 -1.457031 L 1.769531 -6.703125 L 0.976562 -6.703125 Z M 0.976562 0 "/></g></g></g><g fill="#153045" fill-opacity="1"><g transform="translate(176.54842, 223.389926)"><g/></g></g><g fill="#153045" fill-opacity="1"><g transform="translate(178.921735, 223.389926)"><g><path d="M 0.976562 0 L 5.074219 0 L 5.074219 -0.804688 L 1.820312 -0.804688 L 1.820312 -6.703125 L 0.976562 -6.703125 Z M 0.976562 0 "/></g></g></g><g fill="#153045" fill-opacity="1"><g transform="translate(184.290403, 223.389926)"><g><path d="M 0.976562 0 L 1.820312 0 L 1.820312 -6.703125 L 0.976562 -6.703125 Z M 0.976562 0 "/></g></g></g><g fill="#153045" fill-opacity="1"><g transform="translate(187.084796, 223.389926)"><g><path d="M 3.964844 0.125 C 6.023438 0.125 7.410156 -1.4375 7.371094 -3.636719 L 3.734375 -3.636719 L 3.734375 -2.835938 L 6.464844 -2.835938 C 6.289062 -1.570312 5.332031 -0.71875 3.984375 -0.71875 C 2.480469 -0.71875 1.417969 -1.800781 1.417969 -3.351562 C 1.417969 -4.902344 2.46875 -5.984375 3.972656 -5.984375 C 5.007812 -5.984375 5.832031 -5.476562 6.253906 -4.613281 L 7.171875 -4.613281 C 6.742188 -5.9375 5.476562 -6.828125 3.945312 -6.828125 C 1.980469 -6.828125 0.554688 -5.363281 0.554688 -3.351562 C 0.554688 -1.332031 1.992188 0.125 3.964844 0.125 Z M 3.964844 0.125 "/></g></g></g><g fill="#153045" fill-opacity="1"><g transform="translate(194.979897, 223.389926)"><g><path d="M 0.976562 0 L 1.808594 0 L 1.808594 -5.246094 L 5.515625 0 L 6.300781 0 L 6.300781 -6.703125 L 5.476562 -6.703125 L 5.476562 -1.457031 L 1.769531 -6.703125 L 0.976562 -6.703125 Z M 0.976562 0 "/></g></g></g><g fill="#153045" fill-opacity="1"><g transform="translate(202.25296, 223.389926)"><g><path d="M 0.976562 0 L 5.152344 0 L 5.152344 -0.785156 L 1.820312 -0.785156 L 1.820312 -3.027344 L 4.808594 -3.027344 L 4.808594 -3.800781 L 1.820312 -3.800781 L 1.820312 -5.917969 L 5.046875 -5.917969 L 5.046875 -6.703125 L 0.976562 -6.703125 Z M 0.976562 0 "/></g></g></g><g fill="#153045" fill-opacity="1"><g transform="translate(208.023557, 223.389926)"><g/></g></g><g fill="#153045" fill-opacity="1"><g transform="translate(210.396872, 223.389926)"><g><path d="M 0.976562 0 L 1.820312 0 L 1.820312 -2.203125 L 3.246094 -2.203125 C 4.757812 -2.203125 5.734375 -3.074219 5.734375 -4.453125 C 5.734375 -5.820312 4.757812 -6.703125 3.246094 -6.703125 L 0.976562 -6.703125 Z M 1.820312 -2.988281 L 1.820312 -5.898438 L 3.226562 -5.898438 C 4.308594 -5.898438 4.875 -5.398438 4.875 -4.441406 C 4.875 -3.484375 4.308594 -2.988281 3.226562 -2.988281 Z M 1.820312 -2.988281 "/></g></g></g><g fill="#153045" fill-opacity="1"><g transform="translate(216.511989, 223.389926)"><g><path d="M 4.023438 0.125 C 6.0625 0.125 7.496094 -1.3125 7.496094 -3.351562 C 7.496094 -5.390625 6.0625 -6.828125 4.023438 -6.828125 C 1.980469 -6.828125 0.554688 -5.390625 0.554688 -3.351562 C 0.554688 -1.3125 1.980469 0.125 4.023438 0.125 Z M 1.417969 -3.351562 C 1.417969 -4.910156 2.480469 -5.984375 4.023438 -5.984375 C 5.5625 -5.984375 6.625 -4.910156 6.625 -3.351562 C 6.625 -1.789062 5.5625 -0.71875 4.023438 -0.71875 C 2.480469 -0.71875 1.417969 -1.789062 1.417969 -3.351562 Z M 1.417969 -3.351562 "/></g></g></g><g fill="#153045" fill-opacity="1"><g transform="translate(224.550638, 223.389926)"><g><path d="M 3.484375 0.113281 C 5.105469 0.113281 6.082031 -0.949219 6.082031 -2.730469 L 6.082031 -6.703125 L 5.238281 -6.703125 L 5.238281 -2.785156 C 5.238281 -1.417969 4.632812 -0.707031 3.484375 -0.707031 C 2.347656 -0.707031 1.734375 -1.417969 1.734375 -2.785156 L 1.734375 -6.703125 L 0.898438 -6.703125 L 0.898438 -2.730469 C 0.898438 -0.949219 1.867188 0.113281 3.484375 0.113281 Z M 3.484375 0.113281 "/></g></g></g><g fill="#153045" fill-opacity="1"><g transform="translate(231.527035, 223.389926)"><g><path d="M 0.976562 0 L 1.820312 0 L 1.820312 -2.402344 L 3.292969 -2.402344 L 4.929688 0 L 5.945312 0 L 4.261719 -2.488281 C 5.238281 -2.730469 5.839844 -3.464844 5.839844 -4.546875 C 5.839844 -5.878906 4.921875 -6.703125 3.535156 -6.703125 L 0.976562 -6.703125 Z M 1.820312 -3.207031 L 1.820312 -5.898438 L 3.4375 -5.898438 C 4.414062 -5.898438 4.980469 -5.398438 4.980469 -4.546875 C 4.980469 -3.695312 4.414062 -3.207031 3.4375 -3.207031 Z M 1.820312 -3.207031 "/></g></g></g><g fill="#153045" fill-opacity="1"><g transform="translate(238.044081, 223.389926)"><g/></g></g><g fill="#153045" fill-opacity="1"><g transform="translate(240.417397, 223.389926)"><g><path d="M 0.976562 0 L 1.820312 0 L 1.820312 -2.203125 L 3.246094 -2.203125 C 4.757812 -2.203125 5.734375 -3.074219 5.734375 -4.453125 C 5.734375 -5.820312 4.757812 -6.703125 3.246094 -6.703125 L 0.976562 -6.703125 Z M 1.820312 -2.988281 L 1.820312 -5.898438 L 3.226562 -5.898438 C 4.308594 -5.898438 4.875 -5.398438 4.875 -4.441406 C 4.875 -3.484375 4.308594 -2.988281 3.226562 -2.988281 Z M 1.820312 -2.988281 "/></g></g></g><g fill="#153045" fill-opacity="1"><g transform="translate(246.532513, 223.389926)"><g><path d="M 0.976562 0 L 1.820312 0 L 1.820312 -2.402344 L 3.292969 -2.402344 L 4.929688 0 L 5.945312 0 L 4.261719 -2.488281 C 5.238281 -2.730469 5.839844 -3.464844 5.839844 -4.546875 C 5.839844 -5.878906 4.921875 -6.703125 3.535156 -6.703125 L 0.976562 -6.703125 Z M 1.820312 -3.207031 L 1.820312 -5.898438 L 3.4375 -5.898438 C 4.414062 -5.898438 4.980469 -5.398438 4.980469 -4.546875 C 4.980469 -3.695312 4.414062 -3.207031 3.4375 -3.207031 Z M 1.820312 -3.207031 "/></g></g></g><g fill="#153045" fill-opacity="1"><g transform="translate(253.049559, 223.389926)"><g><path d="M 4.023438 0.125 C 6.0625 0.125 7.496094 -1.3125 7.496094 -3.351562 C 7.496094 -5.390625 6.0625 -6.828125 4.023438 -6.828125 C 1.980469 -6.828125 0.554688 -5.390625 0.554688 -3.351562 C 0.554688 -1.3125 1.980469 0.125 4.023438 0.125 Z M 1.417969 -3.351562 C 1.417969 -4.910156 2.480469 -5.984375 4.023438 -5.984375 C 5.5625 -5.984375 6.625 -4.910156 6.625 -3.351562 C 6.625 -1.789062 5.5625 -0.71875 4.023438 -0.71875 C 2.480469 -0.71875 1.417969 -1.789062 1.417969 -3.351562 Z M 1.417969 -3.351562 "/></g></g></g><g fill="#153045" fill-opacity="1"><g transform="translate(261.088208, 223.389926)"><g><path d="M 0.976562 0 L 1.820312 0 L 1.820312 -2.824219 L 4.566406 -2.824219 L 4.566406 -3.601562 L 1.820312 -3.601562 L 1.820312 -5.917969 L 4.816406 -5.917969 L 4.816406 -6.703125 L 0.976562 -6.703125 Z M 0.976562 0 "/></g></g></g><g fill="#153045" fill-opacity="1"><g transform="translate(266.428171, 223.389926)"><g><path d="M 0.976562 0 L 1.820312 0 L 1.820312 -6.703125 L 0.976562 -6.703125 Z M 0.976562 0 "/></g></g></g><g fill="#153045" fill-opacity="1"><g transform="translate(269.222564, 223.389926)"><g><path d="M 2.59375 0 L 3.4375 0 L 3.4375 -5.898438 L 5.695312 -5.898438 L 5.695312 -6.703125 L 0.324219 -6.703125 L 0.324219 -5.898438 L 2.59375 -5.898438 Z M 2.59375 0 "/></g></g></g><g fill="#153045" fill-opacity="1"><g transform="translate(275.251554, 223.389926)"><g><path d="M 0.976562 0 L 5.152344 0 L 5.152344 -0.785156 L 1.820312 -0.785156 L 1.820312 -3.027344 L 4.808594 -3.027344 L 4.808594 -3.800781 L 1.820312 -3.800781 L 1.820312 -5.917969 L 5.046875 -5.917969 L 5.046875 -6.703125 L 0.976562 -6.703125 Z M 0.976562 0 "/></g></g></g><g fill="#153045" fill-opacity="1"><g transform="translate(281.022151, 223.389926)"><g><path d="M 0.976562 0 L 1.820312 0 L 1.820312 -2.402344 L 3.292969 -2.402344 L 4.929688 0 L 5.945312 0 L 4.261719 -2.488281 C 5.238281 -2.730469 5.839844 -3.464844 5.839844 -4.546875 C 5.839844 -5.878906 4.921875 -6.703125 3.535156 -6.703125 L 0.976562 -6.703125 Z M 1.820312 -3.207031 L 1.820312 -5.898438 L 3.4375 -5.898438 C 4.414062 -5.898438 4.980469 -5.398438 4.980469 -4.546875 C 4.980469 -3.695312 4.414062 -3.207031 3.4375 -3.207031 Z M 1.820312 -3.207031 "/></g></g></g><g fill="#153045" fill-opacity="1"><g transform="translate(287.539197, 223.389926)"><g/></g></g><g fill="#153045" fill-opacity="1"><g transform="translate(289.912512, 223.389926)"><g><path d="M 0.976562 0 L 3.292969 0 C 5.351562 0 6.730469 -1.371094 6.730469 -3.351562 C 6.730469 -5.332031 5.351562 -6.703125 3.292969 -6.703125 L 0.976562 -6.703125 Z M 1.820312 -0.804688 L 1.820312 -5.898438 L 3.253906 -5.898438 C 4.816406 -5.898438 5.871094 -4.875 5.871094 -3.351562 C 5.871094 -1.828125 4.824219 -0.804688 3.292969 -0.804688 Z M 1.820312 -0.804688 "/></g></g></g><g fill="#153045" fill-opacity="1"><g transform="translate(297.195144, 223.389926)"><g><path d="M 0.976562 0 L 5.152344 0 L 5.152344 -0.785156 L 1.820312 -0.785156 L 1.820312 -3.027344 L 4.808594 -3.027344 L 4.808594 -3.800781 L 1.820312 -3.800781 L 1.820312 -5.917969 L 5.046875 -5.917969 L 5.046875 -6.703125 L 0.976562 -6.703125 Z M 0.976562 0 "/></g></g></g><g fill="#153045" fill-opacity="1"><g transform="translate(302.96573, 223.389926)"><g/></g></g><g fill="#153045" fill-opacity="1"><g transform="translate(305.339057, 223.389926)"><g><path d="M 0.976562 0 L 5.074219 0 L 5.074219 -0.804688 L 1.820312 -0.804688 L 1.820312 -6.703125 L 0.976562 -6.703125 Z M 0.976562 0 "/></g></g></g><g fill="#153045" fill-opacity="1"><g transform="translate(310.707724, 223.389926)"><g><path d="M 0.164062 0 L 1.0625 0 L 1.675781 -1.523438 L 4.941406 -1.523438 L 5.574219 0 L 6.464844 0 L 3.707031 -6.703125 L 2.921875 -6.703125 Z M 2 -2.308594 L 3.3125 -5.523438 L 4.625 -2.308594 Z M 2 -2.308594 "/></g></g></g><g fill="#153045" fill-opacity="1"><g transform="translate(105.529537, 236.453919)"><g><path d="M 0.976562 0 L 1.820312 0 L 1.820312 -2.203125 L 3.246094 -2.203125 C 4.757812 -2.203125 5.734375 -3.074219 5.734375 -4.453125 C 5.734375 -5.820312 4.757812 -6.703125 3.246094 -6.703125 L 0.976562 -6.703125 Z M 1.820312 -2.988281 L 1.820312 -5.898438 L 3.226562 -5.898438 C 4.308594 -5.898438 4.875 -5.398438 4.875 -4.441406 C 4.875 -3.484375 4.308594 -2.988281 3.226562 -2.988281 Z M 1.820312 -2.988281 "/></g></g></g><g fill="#153045" fill-opacity="1"><g transform="translate(111.644654, 236.453919)"><g><path d="M 0.976562 0 L 1.820312 0 L 1.820312 -2.402344 L 3.292969 -2.402344 L 4.929688 0 L 5.945312 0 L 4.261719 -2.488281 C 5.238281 -2.730469 5.839844 -3.464844 5.839844 -4.546875 C 5.839844 -5.878906 4.921875 -6.703125 3.535156 -6.703125 L 0.976562 -6.703125 Z M 1.820312 -3.207031 L 1.820312 -5.898438 L 3.4375 -5.898438 C 4.414062 -5.898438 4.980469 -5.398438 4.980469 -4.546875 C 4.980469 -3.695312 4.414062 -3.207031 3.4375 -3.207031 Z M 1.820312 -3.207031 "/></g></g></g><g fill="#153045" fill-opacity="1"><g transform="translate(118.1617, 236.453919)"><g><path d="M 4.023438 0.125 C 6.0625 0.125 7.496094 -1.3125 7.496094 -3.351562 C 7.496094 -5.390625 6.0625 -6.828125 4.023438 -6.828125 C 1.980469 -6.828125 0.554688 -5.390625 0.554688 -3.351562 C 0.554688 -1.3125 1.980469 0.125 4.023438 0.125 Z M 1.417969 -3.351562 C 1.417969 -4.910156 2.480469 -5.984375 4.023438 -5.984375 C 5.5625 -5.984375 6.625 -4.910156 6.625 -3.351562 C 6.625 -1.789062 5.5625 -0.71875 4.023438 -0.71875 C 2.480469 -0.71875 1.417969 -1.789062 1.417969 -3.351562 Z M 1.417969 -3.351562 "/></g></g></g><g fill="#153045" fill-opacity="1"><g transform="translate(126.200349, 236.453919)"><g><path d="M 0.976562 0 L 1.820312 0 L 1.820312 -5.132812 L 4.039062 -1.78125 L 4.730469 -1.78125 L 6.953125 -5.121094 L 6.953125 0 L 7.792969 0 L 7.792969 -6.703125 L 7.007812 -6.703125 L 4.394531 -2.730469 L 1.761719 -6.703125 L 0.976562 -6.703125 Z M 0.976562 0 "/></g></g></g><g fill="#153045" fill-opacity="1"><g transform="translate(134.96631, 236.453919)"><g><path d="M 4.023438 0.125 C 6.0625 0.125 7.496094 -1.3125 7.496094 -3.351562 C 7.496094 -5.390625 6.0625 -6.828125 4.023438 -6.828125 C 1.980469 -6.828125 0.554688 -5.390625 0.554688 -3.351562 C 0.554688 -1.3125 1.980469 0.125 4.023438 0.125 Z M 1.417969 -3.351562 C 1.417969 -4.910156 2.480469 -5.984375 4.023438 -5.984375 C 5.5625 -5.984375 6.625 -4.910156 6.625 -3.351562 C 6.625 -1.789062 5.5625 -0.71875 4.023438 -0.71875 C 2.480469 -0.71875 1.417969 -1.789062 1.417969 -3.351562 Z M 1.417969 -3.351562 "/></g></g></g><g fill="#153045" fill-opacity="1"><g transform="translate(143.004959, 236.453919)"><g><path d="M 2.59375 0 L 3.4375 0 L 3.4375 -5.898438 L 5.695312 -5.898438 L 5.695312 -6.703125 L 0.324219 -6.703125 L 0.324219 -5.898438 L 2.59375 -5.898438 Z M 2.59375 0 "/></g></g></g><g fill="#153045" fill-opacity="1"><g transform="translate(149.033948, 236.453919)"><g><path d="M 0.976562 0 L 1.820312 0 L 1.820312 -6.703125 L 0.976562 -6.703125 Z M 0.976562 0 "/></g></g></g><g fill="#153045" fill-opacity="1"><g transform="translate(151.828342, 236.453919)"><g><path d="M 4.023438 0.125 C 6.0625 0.125 7.496094 -1.3125 7.496094 -3.351562 C 7.496094 -5.390625 6.0625 -6.828125 4.023438 -6.828125 C 1.980469 -6.828125 0.554688 -5.390625 0.554688 -3.351562 C 0.554688 -1.3125 1.980469 0.125 4.023438 0.125 Z M 1.417969 -3.351562 C 1.417969 -4.910156 2.480469 -5.984375 4.023438 -5.984375 C 5.5625 -5.984375 6.625 -4.910156 6.625 -3.351562 C 6.625 -1.789062 5.5625 -0.71875 4.023438 -0.71875 C 2.480469 -0.71875 1.417969 -1.789062 1.417969 -3.351562 Z M 1.417969 -3.351562 "/></g></g></g><g fill="#153045" fill-opacity="1"><g transform="translate(159.866991, 236.453919)"><g><path d="M 0.976562 0 L 1.808594 0 L 1.808594 -5.246094 L 5.515625 0 L 6.300781 0 L 6.300781 -6.703125 L 5.476562 -6.703125 L 5.476562 -1.457031 L 1.769531 -6.703125 L 0.976562 -6.703125 Z M 0.976562 0 "/></g></g></g><g fill="#153045" fill-opacity="1"><g transform="translate(167.140054, 236.453919)"><g/></g></g><g fill="#153045" fill-opacity="1"><g transform="translate(169.513369, 236.453919)"><g><path d="M 2.835938 0 L 3.621094 0 L 6.28125 -6.703125 L 5.390625 -6.703125 L 4.269531 -3.878906 L 3.226562 -1.214844 L 2.171875 -3.878906 L 1.0625 -6.703125 L 0.164062 -6.703125 Z M 2.835938 0 "/></g></g></g><g fill="#153045" fill-opacity="1"><g transform="translate(175.953857, 236.453919)"><g><path d="M 0.164062 0 L 1.0625 0 L 1.675781 -1.523438 L 4.941406 -1.523438 L 5.574219 0 L 6.464844 0 L 3.707031 -6.703125 L 2.921875 -6.703125 Z M 2 -2.308594 L 3.3125 -5.523438 L 4.625 -2.308594 Z M 2 -2.308594 "/></g></g></g><g fill="#153045" fill-opacity="1"><g transform="translate(182.576178, 236.453919)"><g><path d="M 0.976562 0 L 5.074219 0 L 5.074219 -0.804688 L 1.820312 -0.804688 L 1.820312 -6.703125 L 0.976562 -6.703125 Z M 0.976562 0 "/></g></g></g><g fill="#153045" fill-opacity="1"><g transform="translate(187.944846, 236.453919)"><g><path d="M 0.164062 0 L 1.0625 0 L 1.675781 -1.523438 L 4.941406 -1.523438 L 5.574219 0 L 6.464844 0 L 3.707031 -6.703125 L 2.921875 -6.703125 Z M 2 -2.308594 L 3.3125 -5.523438 L 4.625 -2.308594 Z M 2 -2.308594 "/></g></g></g><g fill="#153045" fill-opacity="1"><g transform="translate(194.567167, 236.453919)"><g><path d="M 0.976562 0 L 3.695312 0 C 5.046875 0 5.890625 -0.71875 5.890625 -1.875 C 5.890625 -2.632812 5.515625 -3.199219 4.824219 -3.476562 C 5.371094 -3.753906 5.695312 -4.269531 5.695312 -4.921875 C 5.695312 -6.003906 4.855469 -6.703125 3.570312 -6.703125 L 0.976562 -6.703125 Z M 1.820312 -0.785156 L 1.820312 -3.035156 L 3.667969 -3.035156 C 4.539062 -3.035156 5.027344 -2.625 5.027344 -1.914062 C 5.027344 -1.195312 4.539062 -0.785156 3.675781 -0.785156 Z M 1.820312 -3.800781 L 1.820312 -5.917969 L 3.550781 -5.917969 C 4.367188 -5.917969 4.835938 -5.535156 4.835938 -4.855469 C 4.835938 -4.183594 4.375 -3.800781 3.550781 -3.800781 Z M 1.820312 -3.800781 "/></g></g></g><g fill="#153045" fill-opacity="1"><g transform="translate(200.988518, 236.453919)"><g><path d="M 0.976562 0 L 5.074219 0 L 5.074219 -0.804688 L 1.820312 -0.804688 L 1.820312 -6.703125 L 0.976562 -6.703125 Z M 0.976562 0 "/></g></g></g><g fill="#153045" fill-opacity="1"><g transform="translate(206.357186, 236.453919)"><g><path d="M 0.976562 0 L 5.152344 0 L 5.152344 -0.785156 L 1.820312 -0.785156 L 1.820312 -3.027344 L 4.808594 -3.027344 L 4.808594 -3.800781 L 1.820312 -3.800781 L 1.820312 -5.917969 L 5.046875 -5.917969 L 5.046875 -6.703125 L 0.976562 -6.703125 Z M 0.976562 0 "/></g></g></g><g fill="#153045" fill-opacity="1"><g transform="translate(212.127783, 236.453919)"><g/></g></g><g fill="#153045" fill-opacity="1"><g transform="translate(214.501098, 236.453919)"><g><path d="M 3.207031 0.125 C 4.671875 0.125 5.621094 -0.59375 5.621094 -1.761719 C 5.621094 -2.75 4.960938 -3.339844 3.246094 -3.761719 C 1.945312 -4.078125 1.511719 -4.421875 1.511719 -4.980469 C 1.511719 -5.621094 2.085938 -6.023438 3.042969 -6.023438 C 4.03125 -6.023438 4.644531 -5.523438 4.664062 -4.71875 L 5.496094 -4.71875 C 5.488281 -6.023438 4.546875 -6.828125 3.042969 -6.828125 C 1.578125 -6.828125 0.652344 -6.109375 0.652344 -4.980469 C 0.652344 -3.945312 1.386719 -3.371094 3.035156 -2.976562 C 4.242188 -2.691406 4.75 -2.355469 4.75 -1.734375 C 4.75 -1.074219 4.15625 -0.679688 3.207031 -0.679688 C 2.164062 -0.679688 1.4375 -1.195312 1.417969 -2.058594 L 0.574219 -2.058594 C 0.585938 -0.746094 1.609375 0.125 3.207031 0.125 Z M 3.207031 0.125 "/></g></g></g><g fill="#153045" fill-opacity="1"><g transform="translate(220.692774, 236.453919)"><g><path d="M 3.484375 0.113281 C 5.105469 0.113281 6.082031 -0.949219 6.082031 -2.730469 L 6.082031 -6.703125 L 5.238281 -6.703125 L 5.238281 -2.785156 C 5.238281 -1.417969 4.632812 -0.707031 3.484375 -0.707031 C 2.347656 -0.707031 1.734375 -1.417969 1.734375 -2.785156 L 1.734375 -6.703125 L 0.898438 -6.703125 L 0.898438 -2.730469 C 0.898438 -0.949219 1.867188 0.113281 3.484375 0.113281 Z M 3.484375 0.113281 "/></g></g></g><g fill="#153045" fill-opacity="1"><g transform="translate(227.669171, 236.453919)"><g><path d="M 0.976562 0 L 1.820312 0 L 1.820312 -2.402344 L 3.292969 -2.402344 L 4.929688 0 L 5.945312 0 L 4.261719 -2.488281 C 5.238281 -2.730469 5.839844 -3.464844 5.839844 -4.546875 C 5.839844 -5.878906 4.921875 -6.703125 3.535156 -6.703125 L 0.976562 -6.703125 Z M 1.820312 -3.207031 L 1.820312 -5.898438 L 3.4375 -5.898438 C 4.414062 -5.898438 4.980469 -5.398438 4.980469 -4.546875 C 4.980469 -3.695312 4.414062 -3.207031 3.4375 -3.207031 Z M 1.820312 -3.207031 "/></g></g></g><g fill="#153045" fill-opacity="1"><g transform="translate(234.186217, 236.453919)"><g/></g></g><g fill="#153045" fill-opacity="1"><g transform="translate(236.559532, 236.453919)"><g><path d="M 2.835938 0 L 3.621094 0 L 6.28125 -6.703125 L 5.390625 -6.703125 L 4.269531 -3.878906 L 3.226562 -1.214844 L 2.171875 -3.878906 L 1.0625 -6.703125 L 0.164062 -6.703125 Z M 2.835938 0 "/></g></g></g><g fill="#153045" fill-opacity="1"><g transform="translate(243.00002, 236.453919)"><g><path d="M 4.023438 0.125 C 6.0625 0.125 7.496094 -1.3125 7.496094 -3.351562 C 7.496094 -5.390625 6.0625 -6.828125 4.023438 -6.828125 C 1.980469 -6.828125 0.554688 -5.390625 0.554688 -3.351562 C 0.554688 -1.3125 1.980469 0.125 4.023438 0.125 Z M 1.417969 -3.351562 C 1.417969 -4.910156 2.480469 -5.984375 4.023438 -5.984375 C 5.5625 -5.984375 6.625 -4.910156 6.625 -3.351562 C 6.625 -1.789062 5.5625 -0.71875 4.023438 -0.71875 C 2.480469 -0.71875 1.417969 -1.789062 1.417969 -3.351562 Z M 1.417969 -3.351562 "/></g></g></g><g fill="#153045" fill-opacity="1"><g transform="translate(251.038669, 236.453919)"><g><path d="M 2.59375 0 L 3.4375 0 L 3.4375 -5.898438 L 5.695312 -5.898438 L 5.695312 -6.703125 L 0.324219 -6.703125 L 0.324219 -5.898438 L 2.59375 -5.898438 Z M 2.59375 0 "/></g></g></g><g fill="#153045" fill-opacity="1"><g transform="translate(257.067659, 236.453919)"><g><path d="M 0.976562 0 L 1.820312 0 L 1.820312 -2.402344 L 3.292969 -2.402344 L 4.929688 0 L 5.945312 0 L 4.261719 -2.488281 C 5.238281 -2.730469 5.839844 -3.464844 5.839844 -4.546875 C 5.839844 -5.878906 4.921875 -6.703125 3.535156 -6.703125 L 0.976562 -6.703125 Z M 1.820312 -3.207031 L 1.820312 -5.898438 L 3.4375 -5.898438 C 4.414062 -5.898438 4.980469 -5.398438 4.980469 -4.546875 C 4.980469 -3.695312 4.414062 -3.207031 3.4375 -3.207031 Z M 1.820312 -3.207031 "/></g></g></g><g fill="#153045" fill-opacity="1"><g transform="translate(263.584705, 236.453919)"><g><path d="M 0.976562 0 L 5.152344 0 L 5.152344 -0.785156 L 1.820312 -0.785156 L 1.820312 -3.027344 L 4.808594 -3.027344 L 4.808594 -3.800781 L 1.820312 -3.800781 L 1.820312 -5.917969 L 5.046875 -5.917969 L 5.046875 -6.703125 L 0.976562 -6.703125 Z M 0.976562 0 "/></g></g></g><g fill="#153045" fill-opacity="1"><g transform="translate(269.355302, 236.453919)"><g/></g></g><g fill="#153045" fill-opacity="1"><g transform="translate(271.728617, 236.453919)"><g><path d="M 0.976562 0 L 1.820312 0 L 1.820312 -2.203125 L 3.246094 -2.203125 C 4.757812 -2.203125 5.734375 -3.074219 5.734375 -4.453125 C 5.734375 -5.820312 4.757812 -6.703125 3.246094 -6.703125 L 0.976562 -6.703125 Z M 1.820312 -2.988281 L 1.820312 -5.898438 L 3.226562 -5.898438 C 4.308594 -5.898438 4.875 -5.398438 4.875 -4.441406 C 4.875 -3.484375 4.308594 -2.988281 3.226562 -2.988281 Z M 1.820312 -2.988281 "/></g></g></g><g fill="#153045" fill-opacity="1"><g transform="translate(277.843734, 236.453919)"><g><path d="M 0.164062 0 L 1.0625 0 L 1.675781 -1.523438 L 4.941406 -1.523438 L 5.574219 0 L 6.464844 0 L 3.707031 -6.703125 L 2.921875 -6.703125 Z M 2 -2.308594 L 3.3125 -5.523438 L 4.625 -2.308594 Z M 2 -2.308594 "/></g></g></g><g fill="#153045" fill-opacity="1"><g transform="translate(284.466055, 236.453919)"><g><path d="M 0.976562 0 L 1.808594 0 L 1.808594 -5.246094 L 5.515625 0 L 6.300781 0 L 6.300781 -6.703125 L 5.476562 -6.703125 L 5.476562 -1.457031 L 1.769531 -6.703125 L 0.976562 -6.703125 Z M 0.976562 0 "/></g></g></g><g fill="#153045" fill-opacity="1"><g transform="translate(291.739118, 236.453919)"><g><path d="M 0.976562 0 L 1.820312 0 L 1.820312 -6.703125 L 0.976562 -6.703125 Z M 0.976562 0 "/></g></g></g><g fill="#153045" fill-opacity="1"><g transform="translate(294.533512, 236.453919)"><g><path d="M 0.976562 0 L 5.152344 0 L 5.152344 -0.785156 L 1.820312 -0.785156 L 1.820312 -3.027344 L 4.808594 -3.027344 L 4.808594 -3.800781 L 1.820312 -3.800781 L 1.820312 -5.917969 L 5.046875 -5.917969 L 5.046875 -6.703125 L 0.976562 -6.703125 Z M 0.976562 0 "/></g></g></g><g fill="#153045" fill-opacity="1"><g transform="translate(300.304109, 236.453919)"><g><path d="M 0.976562 0 L 1.820312 0 L 1.820312 -2.402344 L 3.292969 -2.402344 L 4.929688 0 L 5.945312 0 L 4.261719 -2.488281 C 5.238281 -2.730469 5.839844 -3.464844 5.839844 -4.546875 C 5.839844 -5.878906 4.921875 -6.703125 3.535156 -6.703125 L 0.976562 -6.703125 Z M 1.820312 -3.207031 L 1.820312 -5.898438 L 3.4375 -5.898438 C 4.414062 -5.898438 4.980469 -5.398438 4.980469 -4.546875 C 4.980469 -3.695312 4.414062 -3.207031 3.4375 -3.207031 Z M 1.820312 -3.207031 "/></g></g></g><g fill="#153045" fill-opacity="1"><g transform="translate(181.920277, 249.517912)"><g><path d="M 0.976562 0 L 3.292969 0 C 5.351562 0 6.730469 -1.371094 6.730469 -3.351562 C 6.730469 -5.332031 5.351562 -6.703125 3.292969 -6.703125 L 0.976562 -6.703125 Z M 1.820312 -0.804688 L 1.820312 -5.898438 L 3.253906 -5.898438 C 4.816406 -5.898438 5.871094 -4.875 5.871094 -3.351562 C 5.871094 -1.828125 4.824219 -0.804688 3.292969 -0.804688 Z M 1.820312 -0.804688 "/></g></g></g><g fill="#153045" fill-opacity="1"><g transform="translate(189.202909, 249.517912)"><g><path d="M 0.71875 -4.320312 L 1.417969 -4.320312 L 1.445312 -6.703125 L 0.6875 -6.703125 Z M 0.71875 -4.320312 "/></g></g></g><g fill="#153045" fill-opacity="1"><g transform="translate(191.33698, 249.517912)"><g><path d="M 0.164062 0 L 1.0625 0 L 1.675781 -1.523438 L 4.941406 -1.523438 L 5.574219 0 L 6.464844 0 L 3.707031 -6.703125 L 2.921875 -6.703125 Z M 2 -2.308594 L 3.3125 -5.523438 L 4.625 -2.308594 Z M 2 -2.308594 "/></g></g></g><g fill="#153045" fill-opacity="1"><g transform="translate(197.959302, 249.517912)"><g><path d="M 3.945312 0.125 C 5.574219 0.125 6.894531 -0.863281 7.296875 -2.355469 L 6.40625 -2.355469 C 6.0625 -1.351562 5.113281 -0.71875 3.972656 -0.71875 C 2.480469 -0.71875 1.417969 -1.800781 1.417969 -3.351562 C 1.417969 -4.902344 2.480469 -5.984375 3.972656 -5.984375 C 5.085938 -5.984375 5.992188 -5.390625 6.339844 -4.421875 L 7.238281 -4.421875 C 6.796875 -5.898438 5.523438 -6.828125 3.945312 -6.828125 C 1.972656 -6.828125 0.554688 -5.371094 0.554688 -3.351562 C 0.554688 -1.332031 1.972656 0.125 3.945312 0.125 Z M 3.945312 0.125 "/></g></g></g><g fill="#153045" fill-opacity="1"><g transform="translate(205.768275, 249.517912)"><g><path d="M 5.371094 0 L 6.214844 0 L 6.214844 -6.703125 L 5.371094 -6.703125 L 5.371094 -3.820312 L 1.820312 -3.820312 L 1.820312 -6.703125 L 0.976562 -6.703125 L 0.976562 0 L 1.820312 0 L 1.820312 -3.015625 L 5.371094 -3.015625 Z M 5.371094 0 "/></g></g></g><g fill="#153045" fill-opacity="1"><g transform="translate(212.955211, 249.517912)"><g><path d="M 0.164062 0 L 1.0625 0 L 1.675781 -1.523438 L 4.941406 -1.523438 L 5.574219 0 L 6.464844 0 L 3.707031 -6.703125 L 2.921875 -6.703125 Z M 2 -2.308594 L 3.3125 -5.523438 L 4.625 -2.308594 Z M 2 -2.308594 "/></g></g></g><g fill="#153045" fill-opacity="1"><g transform="translate(219.577533, 249.517912)"><g><path d="M 2.59375 0 L 3.4375 0 L 3.4375 -5.898438 L 5.695312 -5.898438 L 5.695312 -6.703125 L 0.324219 -6.703125 L 0.324219 -5.898438 L 2.59375 -5.898438 Z M 2.59375 0 "/></g></g></g><g fill="#153045" fill-opacity="1"><g transform="translate(225.606523, 249.517912)"><g><path d="M 1.226562 0.078125 C 1.617188 0.078125 1.875 -0.191406 1.875 -0.554688 C 1.875 -0.917969 1.617188 -1.179688 1.226562 -1.179688 C 0.84375 -1.179688 0.585938 -0.917969 0.585938 -0.554688 C 0.585938 -0.191406 0.84375 0.078125 1.226562 0.078125 Z M 1.226562 0.078125 "/></g></g></g><g fill="#153045" fill-opacity="1"><g transform="translate(228.064511, 249.517912)"><g/></g></g><g fill="#153045" fill-opacity="1"><g transform="translate(81.667747, 154.462828)"><g><path d="M 4.59375 0 L 17.125 0 L 17.125 -10.734375 L 22.898438 -10.734375 C 33.945312 -10.734375 40.957031 -17.125 40.957031 -27.117188 C 40.957031 -37.109375 33.945312 -43.4375 22.898438 -43.4375 L 4.59375 -43.4375 Z M 17.003906 -21.222656 L 17.003906 -32.886719 L 21.71875 -32.886719 C 25.875 -32.886719 28.296875 -30.65625 28.296875 -27.054688 C 28.296875 -23.394531 25.875 -21.222656 21.71875 -21.222656 Z M 17.003906 -21.222656 "/></g></g></g><g fill="#153045" fill-opacity="1"><g transform="translate(124.050598, 154.462828)"><g><path d="M 4.59375 0 L 17.125 0 L 17.125 -12.347656 L 21.84375 -12.347656 L 28.046875 0 L 42.257812 0 L 34.253906 -14.644531 C 38.847656 -17.1875 41.453125 -21.78125 41.453125 -27.863281 C 41.453125 -37.480469 34.9375 -43.4375 24.386719 -43.4375 L 4.59375 -43.4375 Z M 16.878906 -22.339844 L 16.878906 -33.199219 L 22.710938 -33.199219 C 26.683594 -33.199219 28.855469 -31.273438 28.855469 -27.800781 C 28.855469 -24.324219 26.683594 -22.339844 22.710938 -22.339844 Z M 16.878906 -22.339844 "/></g></g></g><g fill="#153045" fill-opacity="1"><g transform="translate(168.729454, 154.462828)"><g><path d="M 25.753906 0.929688 C 39.589844 0.929688 49.394531 -8.4375 49.394531 -21.71875 C 49.394531 -35 39.589844 -44.367188 25.753906 -44.367188 C 11.914062 -44.367188 2.109375 -35 2.109375 -21.71875 C 2.109375 -8.4375 11.914062 0.929688 25.753906 0.929688 Z M 14.832031 -21.71875 C 14.832031 -28.234375 19.359375 -32.765625 25.753906 -32.765625 C 32.207031 -32.765625 36.675781 -28.234375 36.675781 -21.71875 C 36.675781 -15.203125 32.207031 -10.671875 25.753906 -10.671875 C 19.359375 -10.671875 14.832031 -15.203125 14.832031 -21.71875 Z M 14.832031 -21.71875 "/></g></g></g><g fill="#153045" fill-opacity="1"><g transform="translate(220.296295, 154.462828)"><g><path d="M 4.59375 0 L 17.003906 0 L 17.003906 -22.027344 L 25.378906 -10.300781 L 33.507812 -10.300781 L 41.824219 -21.96875 L 41.824219 0 L 54.234375 0 L 54.234375 -43.4375 L 44.058594 -43.4375 L 29.414062 -22.773438 L 14.832031 -43.4375 L 4.59375 -43.4375 Z M 4.59375 0 "/></g></g></g><g fill="#153045" fill-opacity="1"><g transform="translate(279.123452, 154.462828)"><g><path d="M 25.753906 0.929688 C 39.589844 0.929688 49.394531 -8.4375 49.394531 -21.71875 C 49.394531 -35 39.589844 -44.367188 25.753906 -44.367188 C 11.914062 -44.367188 2.109375 -35 2.109375 -21.71875 C 2.109375 -8.4375 11.914062 0.929688 25.753906 0.929688 Z M 14.832031 -21.71875 C 14.832031 -28.234375 19.359375 -32.765625 25.753906 -32.765625 C 32.207031 -32.765625 36.675781 -28.234375 36.675781 -21.71875 C 36.675781 -15.203125 32.207031 -10.671875 25.753906 -10.671875 C 19.359375 -10.671875 14.832031 -15.203125 14.832031 -21.71875 Z M 14.832031 -21.71875 "/></g></g></g></svg>