<svg fill="none" height="50" viewBox="0 0 50 50" width="50" xmlns="http://www.w3.org/2000/svg" xmlns:xlink="http://www.w3.org/1999/xlink"><clipPath id="a"><path d="m11 14h29v22h-29z"/></clipPath><rect fill="#81cddd" height="49.7778" rx="11" width="49.7778" x=".111115"/><g clip-path="url(#a)"><path d="m35.956 26.6453c-1.0111.0054-1.8899.2519-2.6258.6162-.2699-.5411-.5399-1.0234-.5876-1.377-.0529-.4126-.1164-.6644-.0529-1.1573.0635-.493.3494-1.1949.3441-1.2484-.0053-.0536-.0635-.3054-.6459-.3108-.5823-.0054-1.0852.1125-1.1435.2679-.0582.1554-.1694.509-.2435.8734-.1006.5358-1.1646 2.4486-1.7734 3.4505-.1959-.3911-.3653-.734-.4024-1.0073-.0529-.4126-.1164-.6644-.0529-1.1573.0635-.493.3494-1.1949.3441-1.2484-.0053-.0536-.0635-.3054-.6459-.3108-.5823-.0054-1.0852.1125-1.1434.2679-.0583.1554-.1218.5197-.2436.8734-.1217.3536-1.5352 3.547-1.9058 4.3721-.1905.4233-.3547.7608-.4711.9912 0 0-.0053.0161-.0212.0429-.1006.1982-.1588.3054-.1588.3054v.0054c-.0794.1446-.1641.2786-.2065.2786-.0317 0-.09-.3858.0106-.9109.2118-1.1091.7147-2.8344.7094-2.8933 0-.0322.0953-.3322-.3282-.4876-.413-.1554-.5612.1018-.5982.1018-.0371 0-.0636.0911-.0636.0911s.4606-1.9396-.8788-1.9396c-.8364 0-1.9905.9269-2.5622 1.7628-.36.1982-1.1276.6215-1.9482 1.0769-.3123.1768-.6352.3537-.937.5198-.0212-.0215-.0423-.0483-.0635-.0697-1.6199-1.7521-4.6163-2.9898-4.4892-5.3419.0476-.8573.3388-3.1077 5.7544-5.8403 4.4575-2.2235 8.0044-1.6074 8.6185-.2411.8788 1.9503-1.9005 5.5724-6.5062 6.0974-1.7576.1983-2.6787-.4875-2.9116-.7447-.2436-.2679-.2806-.284-.3706-.2304-.1482.0804-.053.3215 0 .4608.1376.3643.7041 1.0073 1.6623 1.3234.847.2786 2.9063.434 5.3998-.5412 2.7898-1.093 4.9709-4.131 4.3304-6.676-.6406-2.5826-4.8757-3.4345-8.8832-1.9932-2.3823.8573-4.9657 2.2075-6.8238 3.9649-2.2076 2.0896-2.557 3.906-2.4141 4.6668.5135 2.7005 4.1928 4.4579 5.6645 5.7599-.0741.0429-.1429.0804-.2012.1125-.7358.3697-3.5416 1.8539-4.2404 3.4238-.7941 1.7789.1271 3.0541.7359 3.2255 1.8899.5305 3.8328-.4233 4.8757-1.9985 1.0429-1.5753.9158-3.622.4341-4.5597-.0053-.0107-.0106-.0214-.0212-.0321.1906-.1126.3864-.2304.577-.343.3759-.225.7465-.434 1.0641-.6054-.18.4983-.3123 1.093-.3759 1.9503-.0794 1.0073.3283 2.3147.8629 2.829.2383.2251.5188.2304.6988.2304.6247 0 .9053-.5251 1.2176-1.1466.3812-.7608.7253-1.6449.7253-1.6449s-.4288 2.3897.7358 2.3897c.4236 0 .8524-.5573 1.0429-.8412v.0053s.0106-.016.0318-.0535c.0424-.0697.0688-.1126.0688-.1126s0-.0053 0-.0107c.1694-.3.5506-.9805 1.117-2.111.7306-1.4574 1.4347-3.2791 1.4347-3.2791s.0635.4447.2806 1.1841c.127.434.3917.9108.6035 1.3716-.1694.2411-.2753.3751-.2753.3751s0 0 .0053.0053c-.1377.1822-.2859.3805-.45.5734-.577.6965-1.2652 1.4948-1.3605 1.7252-.1112.2733-.0847.4715.127.6323.1535.1179.4288.1339.7094.1179.5188-.0376.8841-.1661 1.0641-.2465.2806-.1018.6088-.2572.9158-.4876.5665-.4233.9106-1.0287.8788-1.8271-.0159-.4393-.1588-.8787-.3335-1.2913.0529-.075.1006-.15.1535-.225.8947-1.3234 1.5882-2.7754 1.5882-2.7754s.0635.4447.2806 1.1841c.1058.375.3229.7822.5135 1.1787-.8418.6912-1.3606 1.4949-1.5458 2.02-.3336.9752-.0742 1.4145.4182 1.5163.2223.0483.54-.0589.7729-.1607.2964-.0965.6458-.2626.9794-.509.5664-.4233 1.1117-1.0127 1.0799-1.811-.0159-.3644-.1112-.7234-.2435-1.0716.7147-.3001 1.6358-.4662 2.8111-.3269 2.5199.3001 3.0175 1.8914 2.9222 2.5612-.0953.6697-.6247 1.0341-.7994 1.1466s-.2329.15-.217.2304c.0211.1178.1058.1125.2541.0911.2064-.0376 1.3234-.5412 1.3711-1.7735.0794-1.5753-1.4029-3.2952-4.0234-3.2792zm-19.4392 6.6333c-.8364.9215-2.0011 1.2698-2.504.9751-.54-.3161-.3282-1.677.6988-2.6522.6247-.5947 1.4293-1.1466 1.964-1.4842.1218-.075.3018-.1821.5188-.3161.0371-.0214.0583-.0321.0583-.0321.0423-.0268.0847-.0536.127-.0804.3759 1.3931.0159 2.6201-.8629 3.5899zm6.088-4.19c-.2912.718-.9 2.5558-1.2705 2.454-.3177-.0858-.5135-1.4788-.0636-2.8558.2277-.6912.7094-1.5164.99-1.8378.4553-.5144.9582-.6859 1.08-.4769.1535.2732-.5559 2.2664-.7359 2.7165zm5.0239 2.4325c-.1217.0643-.2382.1072-.2912.0751-.037-.0215.053-.1072.053-.1072s.63-.6858.8788-.9966c.1429-.1822.3123-.3965.4923-.6376v.0697c0 .8197-.7835 1.3716-1.1329 1.5966zm3.8751-.8947c-.0899-.0643-.0741-.2787.2277-.9484.1165-.2626.3917-.7019.8629-1.1252.0529.1715.09.3376.0847.4929-.0053 1.0341-.7359 1.4199-1.1753 1.5807z" fill="#fff"/></g></svg>